<svg width="200" height="50" viewBox="0 0 200 50" fill="none" xmlns="http://www.w3.org/2000/svg">
<mask id="mask0" mask-type="alpha" maskUnits="userSpaceOnUse" x="0" y="0" width="200" height="50">
<rect width="200" height="50" fill="white"/>
</mask>
<g mask="url(#mask0)">
<path d="M4 0.5H196C197.933 0.5 199.5 2.067 199.5 4V46C199.5 47.933 197.933 49.5 196 49.5H4C2.067 49.5 0.5 47.933 0.5 46V4C0.5 2.067 2.067 0.5 4 0.5Z" stroke="white"/>
<path d="M58.9276 30V20.872H66.0536V30H63.9956V22.608H60.9856V30H58.9276ZM68.2108 30V20.872H73.9228V22.608H70.2688V24.442H73.3768V26.164H70.2688V28.264H74.0628V30H68.2108ZM75.8807 30V20.872H79.0167C79.5207 20.872 79.9921 20.9233 80.4307 21.026C80.8694 21.1193 81.2521 21.2827 81.5787 21.516C81.9054 21.74 82.1621 22.0433 82.3487 22.426C82.5447 22.7993 82.6427 23.2613 82.6427 23.812C82.6427 24.344 82.5447 24.806 82.3487 25.198C82.1621 25.59 81.9054 25.912 81.5787 26.164C81.2521 26.416 80.8741 26.6027 80.4447 26.724C80.0154 26.8453 79.5581 26.906 79.0727 26.906H77.9387V30H75.8807ZM77.9387 25.268H78.9467C80.0667 25.268 80.6267 24.7827 80.6267 23.812C80.6267 23.336 80.4774 23 80.1787 22.804C79.8801 22.608 79.4507 22.51 78.8907 22.51H77.9387V25.268ZM84.2206 30V20.872H86.2786V30H84.2206ZM87.8855 30V28.754L90.7135 25.394L87.9275 22.118V20.872H94.1855V22.608H90.5035L92.7715 25.338L90.4615 28.264H94.5635V30H87.8855ZM95.2957 30V28.754L98.1237 25.394L95.3377 22.118V20.872H101.596V22.608H97.9137L100.182 25.338L97.8717 28.264H101.974V30H95.2957ZM106.647 30.168C106.031 30.168 105.467 30.0607 104.953 29.846C104.449 29.622 104.015 29.3047 103.651 28.894C103.287 28.4833 103.003 27.984 102.797 27.396C102.601 26.808 102.503 26.1407 102.503 25.394C102.503 24.6473 102.601 23.9847 102.797 23.406C103.003 22.818 103.287 22.328 103.651 21.936C104.015 21.5347 104.449 21.2313 104.953 21.026C105.467 20.8113 106.031 20.704 106.647 20.704C107.263 20.704 107.823 20.8113 108.327 21.026C108.841 21.2313 109.279 21.5347 109.643 21.936C110.007 22.3373 110.287 22.832 110.483 23.42C110.689 23.9987 110.791 24.6567 110.791 25.394C110.791 26.1407 110.689 26.808 110.483 27.396C110.287 27.984 110.007 28.4833 109.643 28.894C109.279 29.3047 108.841 29.622 108.327 29.846C107.823 30.0607 107.263 30.168 106.647 30.168ZM106.647 28.39C107.273 28.39 107.767 28.124 108.131 27.592C108.495 27.0507 108.677 26.318 108.677 25.394C108.677 24.4793 108.495 23.7653 108.131 23.252C107.767 22.7387 107.273 22.482 106.647 22.482C106.022 22.482 105.527 22.7387 105.163 23.252C104.799 23.7653 104.617 24.4793 104.617 25.394C104.617 26.318 104.799 27.0507 105.163 27.592C105.527 28.124 106.022 28.39 106.647 28.39ZM113.889 30V22.608H111.383V20.872H118.467V22.608H115.961V30H113.889ZM119.891 30V20.872H125.603V22.608H121.949V24.442H125.057V26.164H121.949V28.264H125.743V30H119.891ZM127.56 30V20.872H130.696C131.2 20.872 131.672 20.9233 132.11 21.026C132.549 21.1193 132.932 21.2827 133.258 21.516C133.585 21.74 133.842 22.0433 134.028 22.426C134.224 22.7993 134.322 23.2613 134.322 23.812C134.322 24.344 134.224 24.806 134.028 25.198C133.842 25.59 133.585 25.912 133.258 26.164C132.932 26.416 132.554 26.6027 132.124 26.724C131.695 26.8453 131.238 26.906 130.752 26.906H129.618V30H127.56ZM129.618 25.268H130.626C131.746 25.268 132.306 24.7827 132.306 23.812C132.306 23.336 132.157 23 131.858 22.804C131.56 22.608 131.13 22.51 130.57 22.51H129.618V25.268ZM137.345 25.38L137.121 26.22H139.067L138.857 25.38C138.726 24.9227 138.6 24.4373 138.479 23.924C138.358 23.4107 138.236 22.916 138.115 22.44H138.059C137.947 22.9253 137.83 23.4247 137.709 23.938C137.597 24.442 137.476 24.9227 137.345 25.38ZM134.041 30L136.897 20.872H139.375L142.231 30H140.047L139.487 27.83H136.701L136.141 30H134.041Z" fill="white"/>
</g>
</svg>
