<svg width="619" height="378" viewBox="0 0 619 378" fill="none" xmlns="http://www.w3.org/2000/svg">
<mask id="mask0" mask-type="alpha" maskUnits="userSpaceOnUse" x="0" y="179" width="619" height="46">
<rect y="179" width="619" height="46" rx="4" fill="white"/>
</mask>
<g mask="url(#mask0)">
<path fill-rule="evenodd" clip-rule="evenodd" d="M0 179H619V225H0V179Z" fill="white"/>
<path d="M4 179.5H615C616.933 179.5 618.5 181.067 618.5 183V221C618.5 222.933 616.933 224.5 615 224.5H4C2.067 224.5 0.5 222.933 0.5 221V183C0.5 181.067 2.067 179.5 4 179.5Z" stroke="#B6B6B6"/>
</g>
<path d="M1.08 170.5V162.628H5.616V163.468H2.076V165.94H5.064V166.792H2.076V169.648H5.736V170.5H1.08ZM7.16212 170.5V164.668H7.97812L8.06212 165.508H8.09813C8.35412 165.228 8.63012 164.996 8.92613 164.812C9.23013 164.62 9.55813 164.524 9.91013 164.524C10.3581 164.524 10.7061 164.624 10.9541 164.824C11.2101 165.016 11.3981 165.288 11.5181 165.64C11.8221 165.304 12.1261 165.036 12.4301 164.836C12.7421 164.628 13.0781 164.524 13.4381 164.524C14.0381 164.524 14.4821 164.716 14.7701 165.1C15.0661 165.484 15.2141 166.052 15.2141 166.804V170.5H14.2301V166.936C14.2301 166.384 14.1421 165.988 13.9661 165.748C13.7901 165.5 13.5181 165.376 13.1501 165.376C12.7101 165.376 12.2221 165.676 11.6861 166.276V170.5H10.7021V166.936C10.7021 166.384 10.6141 165.988 10.4381 165.748C10.2621 165.5 9.98612 165.376 9.61013 165.376C9.17013 165.376 8.68212 165.676 8.14612 166.276V170.5H7.16212ZM18.3053 170.644C17.8173 170.644 17.4093 170.5 17.0813 170.212C16.7613 169.924 16.6013 169.516 16.6013 168.988C16.6013 168.348 16.8853 167.86 17.4533 167.524C18.0213 167.18 18.9293 166.94 20.1773 166.804C20.1773 166.62 20.1573 166.44 20.1173 166.264C20.0853 166.088 20.0253 165.932 19.9373 165.796C19.8493 165.66 19.7253 165.552 19.5653 165.472C19.4133 165.384 19.2173 165.34 18.9773 165.34C18.6413 165.34 18.3253 165.404 18.0293 165.532C17.7333 165.66 17.4693 165.804 17.2373 165.964L16.8533 165.28C17.1253 165.104 17.4573 164.936 17.8493 164.776C18.2413 164.608 18.6733 164.524 19.1453 164.524C19.8573 164.524 20.3733 164.744 20.6933 165.184C21.0133 165.616 21.1733 166.196 21.1733 166.924V170.5H20.3573L20.2733 169.804H20.2373C19.9573 170.036 19.6573 170.236 19.3373 170.404C19.0173 170.564 18.6733 170.644 18.3053 170.644ZM18.5933 169.852C18.8733 169.852 19.1373 169.788 19.3853 169.66C19.6333 169.524 19.8973 169.328 20.1773 169.072V167.452C19.6893 167.516 19.2773 167.592 18.9413 167.68C18.6133 167.768 18.3453 167.872 18.1373 167.992C17.9373 168.112 17.7893 168.252 17.6933 168.412C17.6053 168.564 17.5613 168.732 17.5613 168.916C17.5613 169.252 17.6613 169.492 17.8613 169.636C18.0613 169.78 18.3053 169.852 18.5933 169.852ZM22.8582 170.5V164.668H23.8422V170.5H22.8582ZM23.3622 163.468C23.1702 163.468 23.0062 163.408 22.8702 163.288C22.7422 163.168 22.6782 163.016 22.6782 162.832C22.6782 162.64 22.7422 162.488 22.8702 162.376C23.0062 162.256 23.1702 162.196 23.3622 162.196C23.5542 162.196 23.7142 162.256 23.8422 162.376C23.9782 162.488 24.0462 162.64 24.0462 162.832C24.0462 163.016 23.9782 163.168 23.8422 163.288C23.7142 163.408 23.5542 163.468 23.3622 163.468ZM26.7053 170.644C26.3293 170.644 26.0613 170.532 25.9013 170.308C25.7413 170.084 25.6613 169.756 25.6613 169.324V161.956H26.6453V169.396C26.6453 169.556 26.6733 169.668 26.7293 169.732C26.7853 169.796 26.8493 169.828 26.9213 169.828C26.9533 169.828 26.9813 169.828 27.0053 169.828C27.0373 169.828 27.0813 169.82 27.1373 169.804L27.2693 170.548C27.2053 170.58 27.1293 170.604 27.0413 170.62C26.9533 170.636 26.8413 170.644 26.7053 170.644Z" fill="#333333"/>
<path fill-rule="evenodd" clip-rule="evenodd" d="M22.3333 195H11.6667C10.5333 195 9.66666 195.867 9.66666 197V205C9.66666 206.133 10.5333 207 11.6667 207H22.3333C23.4667 207 24.3333 206.133 24.3333 205V197C24.3333 195.867 23.4667 195 22.3333 195ZM11.6667 196.333H22.3333C22.6 196.333 22.8 196.467 22.9333 196.733L17 200.867L11.0667 196.733C11.2 196.467 11.4 196.333 11.6667 196.333ZM11 205C11 205.4 11.2667 205.667 11.6667 205.667H22.3333C22.7333 205.667 23 205.4 23 205V198.267L17.4 202.2C17.2667 202.267 17.1333 202.333 17 202.333C16.8667 202.333 16.7333 202.267 16.6 202.2L11 198.267V205Z" fill="black"/>
<mask id="mask1" mask-type="alpha" maskUnits="userSpaceOnUse" x="9" y="195" width="16" height="12">
<path fill-rule="evenodd" clip-rule="evenodd" d="M22.3333 195H11.6667C10.5333 195 9.66666 195.867 9.66666 197V205C9.66666 206.133 10.5333 207 11.6667 207H22.3333C23.4667 207 24.3333 206.133 24.3333 205V197C24.3333 195.867 23.4667 195 22.3333 195ZM11.6667 196.333H22.3333C22.6 196.333 22.8 196.467 22.9333 196.733L17 200.867L11.0667 196.733C11.2 196.467 11.4 196.333 11.6667 196.333ZM11 205C11 205.4 11.2667 205.667 11.6667 205.667H22.3333C22.7333 205.667 23 205.4 23 205V198.267L17.4 202.2C17.2667 202.267 17.1333 202.333 17 202.333C16.8667 202.333 16.7333 202.267 16.6 202.2L11 198.267V205Z" fill="white"/>
</mask>
<g mask="url(#mask1)">
<path fill-rule="evenodd" clip-rule="evenodd" d="M9 193H25V209H9V193Z" fill="#666666"/>
</g>
<mask id="mask2" mask-type="alpha" maskUnits="userSpaceOnUse" x="0" y="19" width="619" height="46">
<rect y="19" width="619" height="46" rx="4" fill="white"/>
</mask>
<g mask="url(#mask2)">
<path fill-rule="evenodd" clip-rule="evenodd" d="M0 19H619V65H0V19Z" fill="white"/>
<path d="M0.5 23C0.5 21.067 2.067 19.5 4 19.5H615C616.933 19.5 618.5 21.067 618.5 23V61C618.5 62.933 616.933 64.5 615 64.5H4C2.067 64.5 0.5 62.933 0.5 61V23Z" stroke="#B6B6B6"/>
</g>
<path d="M3.984 10.644C3.488 10.644 3.032 10.548 2.616 10.356C2.208 10.164 1.856 9.892 1.56 9.54C1.264 9.18 1.032 8.748 0.864 8.244C0.704 7.732 0.624 7.16 0.624 6.528C0.624 5.896 0.704 5.332 0.864 4.836C1.032 4.332 1.264 3.908 1.56 3.564C1.856 3.212 2.208 2.944 2.616 2.76C3.032 2.576 3.488 2.484 3.984 2.484C4.48 2.484 4.932 2.58 5.34 2.772C5.756 2.956 6.112 3.224 6.408 3.576C6.712 3.92 6.944 4.344 7.104 4.848C7.272 5.344 7.356 5.904 7.356 6.528C7.356 7.16 7.272 7.732 7.104 8.244C6.944 8.748 6.712 9.18 6.408 9.54C6.112 9.892 5.756 10.164 5.34 10.356C4.932 10.548 4.48 10.644 3.984 10.644ZM3.984 9.768C4.336 9.768 4.652 9.692 4.932 9.54C5.22 9.388 5.464 9.172 5.664 8.892C5.872 8.604 6.032 8.264 6.144 7.872C6.256 7.472 6.312 7.024 6.312 6.528C6.312 6.04 6.256 5.6 6.144 5.208C6.032 4.816 5.872 4.484 5.664 4.212C5.464 3.94 5.22 3.732 4.932 3.588C4.652 3.436 4.336 3.36 3.984 3.36C3.632 3.36 3.312 3.436 3.024 3.588C2.744 3.732 2.5 3.94 2.292 4.212C2.092 4.484 1.936 4.816 1.824 5.208C1.712 5.6 1.656 6.04 1.656 6.528C1.656 7.024 1.712 7.472 1.824 7.872C1.936 8.264 2.092 8.604 2.292 8.892C2.5 9.172 2.744 9.388 3.024 9.54C3.312 9.692 3.632 9.768 3.984 9.768ZM10.1347 10.5C10.0227 9.964 9.89075 9.436 9.73875 8.916C9.58675 8.388 9.41475 7.88 9.22275 7.392C9.03075 6.904 8.82275 6.44 8.59875 6C8.37475 5.56 8.13875 5.152 7.89075 4.776L8.88675 4.524C9.08675 4.836 9.28275 5.196 9.47475 5.604C9.66675 6.012 9.84275 6.44 10.0028 6.888C10.1708 7.328 10.3188 7.772 10.4468 8.22C10.5748 8.668 10.6828 9.088 10.7707 9.48H10.8187C11.1788 8.728 11.4908 7.936 11.7548 7.104C12.0268 6.272 12.1988 5.46 12.2708 4.668H13.2668C13.1868 5.172 13.0828 5.664 12.9548 6.144C12.8348 6.624 12.6868 7.1 12.5108 7.572C12.3348 8.044 12.1308 8.524 11.8987 9.012C11.6668 9.492 11.4028 9.988 11.1068 10.5H10.1347ZM16.4743 10.644C16.1143 10.644 15.7703 10.576 15.4423 10.44C15.1223 10.304 14.8423 10.108 14.6023 9.852C14.3623 9.588 14.1703 9.268 14.0263 8.892C13.8903 8.516 13.8223 8.084 13.8223 7.596C13.8223 7.108 13.8903 6.672 14.0263 6.288C14.1703 5.904 14.3623 5.584 14.6023 5.328C14.8423 5.064 15.1223 4.864 15.4423 4.728C15.7703 4.592 16.1143 4.524 16.4743 4.524C16.8423 4.524 17.1863 4.592 17.5063 4.728C17.8343 4.864 18.1183 5.064 18.3583 5.328C18.5983 5.584 18.7863 5.904 18.9223 6.288C19.0663 6.672 19.1383 7.108 19.1383 7.596C19.1383 8.084 19.0663 8.516 18.9223 8.892C18.7863 9.268 18.5983 9.588 18.3583 9.852C18.1183 10.108 17.8343 10.304 17.5063 10.44C17.1863 10.576 16.8423 10.644 16.4743 10.644ZM16.4743 9.828C16.9943 9.828 17.3983 9.628 17.6863 9.228C17.9743 8.82 18.1183 8.276 18.1183 7.596C18.1183 6.916 17.9743 6.372 17.6863 5.964C17.3983 5.548 16.9943 5.34 16.4743 5.34C15.9543 5.34 15.5503 5.548 15.2623 5.964C14.9823 6.372 14.8423 6.916 14.8423 7.596C14.8423 8.276 14.9823 8.82 15.2623 9.228C15.5503 9.628 15.9543 9.828 16.4743 9.828ZM20.5262 12.648V4.668H21.5102V8.232C21.5102 8.752 21.5902 9.144 21.7502 9.408C21.9182 9.664 22.1942 9.792 22.5782 9.792C22.7062 9.792 22.8342 9.78 22.9622 9.756C23.0902 9.724 23.2182 9.668 23.3462 9.588C23.4742 9.5 23.6022 9.384 23.7302 9.24C23.8582 9.088 23.9902 8.892 24.1262 8.652V4.668H25.1222C25.1062 5.46 25.0902 6.264 25.0742 7.08C25.0582 7.896 25.0502 8.656 25.0502 9.36C25.0502 9.52 25.0902 9.64 25.1702 9.72C25.2502 9.792 25.3542 9.828 25.4822 9.828C25.5782 9.828 25.6942 9.804 25.8302 9.756L25.9622 10.5C25.8742 10.54 25.7742 10.572 25.6622 10.596C25.5582 10.628 25.4262 10.644 25.2662 10.644C24.9302 10.644 24.6782 10.556 24.5102 10.38C24.3502 10.196 24.2502 9.908 24.2102 9.516H24.1862C23.9782 9.892 23.7342 10.172 23.4542 10.356C23.1822 10.532 22.8862 10.62 22.5662 10.62C22.3342 10.62 22.1222 10.584 21.9302 10.512C21.7382 10.44 21.5742 10.288 21.4382 10.056C21.4382 10.344 21.4382 10.596 21.4382 10.812C21.4462 11.036 21.4542 11.244 21.4622 11.436C21.4702 11.628 21.4782 11.82 21.4862 12.012C21.4942 12.204 21.5062 12.416 21.5222 12.648H20.5262ZM28.8562 10.644C28.5202 10.644 28.2162 10.58 27.9442 10.452C27.6722 10.324 27.4362 10.136 27.2362 9.888C27.0362 9.632 26.8802 9.324 26.7682 8.964C26.6642 8.596 26.6122 8.172 26.6122 7.692C26.6122 7.188 26.6802 6.74 26.8162 6.348C26.9602 5.956 27.1482 5.628 27.3802 5.364C27.6202 5.092 27.8922 4.884 28.1962 4.74C28.5082 4.596 28.8322 4.524 29.1682 4.524C29.5282 4.524 29.8762 4.64 30.2122 4.872C30.5482 5.104 30.8002 5.496 30.9682 6.048H30.9922L31.2442 4.668H32.2162C32.1362 5.052 32.0522 5.456 31.9642 5.88C31.8842 6.296 31.8082 6.708 31.7362 7.116C31.6642 7.524 31.6042 7.912 31.5562 8.28C31.5082 8.64 31.4842 8.952 31.4842 9.216C31.4842 9.416 31.5402 9.568 31.6522 9.672C31.7642 9.776 31.9002 9.828 32.0602 9.828C32.1242 9.828 32.1922 9.82 32.2642 9.804C32.3362 9.78 32.4042 9.756 32.4682 9.732L32.6122 10.488C32.5242 10.528 32.4202 10.564 32.3002 10.596C32.1802 10.628 32.0322 10.644 31.8562 10.644C31.5042 10.644 31.2242 10.548 31.0162 10.356C30.8082 10.164 30.7042 9.864 30.7042 9.456H30.6682C30.2202 10.248 29.6162 10.644 28.8562 10.644ZM29.0602 9.816C29.2522 9.816 29.4402 9.768 29.6242 9.672C29.8082 9.576 29.9722 9.448 30.1162 9.288C30.2602 9.12 30.3802 8.928 30.4762 8.712C30.5722 8.488 30.6282 8.252 30.6442 8.004L30.7402 6.912C30.6602 6.592 30.5642 6.332 30.4522 6.132C30.3402 5.932 30.2202 5.776 30.0922 5.664C29.9642 5.544 29.8282 5.464 29.6842 5.424C29.5482 5.376 29.4122 5.352 29.2762 5.352C29.0682 5.352 28.8642 5.404 28.6642 5.508C28.4642 5.604 28.2882 5.748 28.1362 5.94C27.9842 6.132 27.8602 6.376 27.7642 6.672C27.6762 6.96 27.6322 7.296 27.6322 7.68C27.6322 8.36 27.7562 8.888 28.0042 9.264C28.2522 9.632 28.6042 9.816 29.0602 9.816ZM35.999 10.644C35.551 10.644 35.239 10.52 35.063 10.272C34.895 10.024 34.811 9.66 34.811 9.18V5.472H32.855V4.728L33.695 4.668H37.751V5.472H35.783C35.767 6.128 35.755 6.776 35.747 7.416C35.739 8.048 35.735 8.66 35.735 9.252C35.735 9.46 35.775 9.608 35.855 9.696C35.943 9.784 36.067 9.828 36.227 9.828C36.315 9.828 36.407 9.82 36.503 9.804C36.599 9.78 36.695 9.756 36.791 9.732L36.935 10.488C36.823 10.528 36.683 10.564 36.515 10.596C36.355 10.628 36.183 10.644 35.999 10.644ZM40.8542 10.644C40.4942 10.644 40.1622 10.604 39.8582 10.524C39.5622 10.444 39.3022 10.328 39.0782 10.176C38.8622 10.024 38.6942 9.84 38.5742 9.624C38.4542 9.408 38.3942 9.164 38.3942 8.892C38.3942 8.468 38.5102 8.144 38.7422 7.92C38.9822 7.688 39.2702 7.528 39.6062 7.44V7.392C39.3022 7.28 39.0702 7.104 38.9102 6.864C38.7582 6.624 38.6822 6.368 38.6822 6.096C38.6822 5.832 38.7422 5.6 38.8622 5.4C38.9822 5.2 39.1422 5.036 39.3422 4.908C39.5502 4.78 39.7862 4.684 40.0502 4.62C40.3222 4.556 40.6102 4.524 40.9142 4.524C41.2662 4.524 41.5982 4.58 41.9102 4.692C42.2302 4.804 42.5262 4.96 42.7982 5.16L42.4022 5.82C42.1702 5.652 41.9342 5.524 41.6942 5.436C41.4622 5.348 41.2102 5.304 40.9382 5.304C40.5782 5.304 40.2742 5.38 40.0262 5.532C39.7862 5.684 39.6662 5.912 39.6662 6.216C39.6662 6.48 39.7702 6.696 39.9782 6.864C40.1862 7.032 40.5262 7.116 40.9982 7.116C41.1102 7.116 41.2222 7.116 41.3342 7.116C41.4462 7.108 41.5782 7.096 41.7302 7.08V7.848C41.5542 7.832 41.3942 7.824 41.2502 7.824C41.1062 7.824 40.9622 7.824 40.8182 7.824C39.8582 7.824 39.3782 8.152 39.3782 8.808C39.3782 9.136 39.5142 9.392 39.7862 9.576C40.0662 9.76 40.4582 9.852 40.9622 9.852C41.2422 9.852 41.5062 9.808 41.7542 9.72C42.0102 9.632 42.2782 9.48 42.5582 9.264L42.9782 9.924C42.6262 10.196 42.2862 10.384 41.9582 10.488C41.6302 10.592 41.2622 10.644 40.8542 10.644ZM48.8442 10.644C48.3802 10.644 48.0522 10.52 47.8602 10.272C47.6682 10.024 47.5722 9.66 47.5722 9.18C47.5722 9.028 47.5722 8.812 47.5722 8.532C47.5802 8.244 47.5882 7.928 47.5962 7.584C47.6042 7.24 47.6122 6.884 47.6202 6.516C47.6282 6.148 47.6322 5.804 47.6322 5.484H45.5682C45.5682 6.308 45.5322 7.156 45.4602 8.028C45.3882 8.892 45.3082 9.736 45.2202 10.56L44.2242 10.5C44.3602 9.676 44.4642 8.832 44.5362 7.968C44.6082 7.104 44.6442 6.276 44.6442 5.484H43.2882V4.728L44.1282 4.668H49.7562V5.484H48.5922C48.5762 5.812 48.5602 6.168 48.5442 6.552C48.5362 6.928 48.5282 7.296 48.5202 7.656C48.5122 8.008 48.5042 8.328 48.4962 8.616C48.4962 8.896 48.4962 9.108 48.4962 9.252C48.4962 9.46 48.5402 9.608 48.6282 9.696C48.7242 9.784 48.8642 9.828 49.0482 9.828C49.1442 9.828 49.3002 9.804 49.5162 9.756L49.6482 10.512C49.5442 10.552 49.4242 10.584 49.2882 10.608C49.1602 10.632 49.0122 10.644 48.8442 10.644ZM52.4283 10.644C52.1403 10.644 51.8723 10.584 51.6243 10.464C51.3763 10.344 51.1603 10.164 50.9763 9.924C50.8003 9.684 50.6603 9.384 50.5563 9.024C50.4523 8.656 50.4003 8.232 50.4003 7.752C50.4003 7.128 50.5043 6.548 50.7123 6.012C50.9203 5.476 51.1763 4.98 51.4803 4.524L52.3803 4.92C52.2123 5.16 52.0643 5.396 51.9363 5.628C51.8083 5.852 51.7003 6.084 51.6123 6.324C51.5243 6.564 51.4563 6.816 51.4083 7.08C51.3683 7.344 51.3483 7.628 51.3483 7.932C51.3483 8.54 51.4523 9.008 51.6603 9.336C51.8763 9.664 52.1483 9.828 52.4763 9.828C52.6203 9.828 52.7563 9.804 52.8843 9.756C53.0123 9.7 53.1243 9.616 53.2203 9.504C53.3163 9.384 53.3923 9.232 53.4483 9.048C53.5043 8.864 53.5323 8.636 53.5323 8.364C53.5323 8.124 53.5243 7.884 53.5083 7.644C53.4923 7.396 53.4683 7.116 53.4363 6.804H54.5163C54.4843 7.116 54.4603 7.396 54.4443 7.644C54.4283 7.884 54.4203 8.124 54.4203 8.364C54.4203 8.644 54.4483 8.88 54.5043 9.072C54.5603 9.256 54.6363 9.404 54.7323 9.516C54.8283 9.628 54.9403 9.708 55.0683 9.756C55.1963 9.804 55.3283 9.828 55.4643 9.828C55.7923 9.828 56.0603 9.664 56.2683 9.336C56.4763 9 56.5803 8.48 56.5803 7.776C56.5803 7.48 56.5603 7.212 56.5203 6.972C56.4883 6.724 56.4323 6.488 56.3523 6.264C56.2803 6.04 56.1843 5.82 56.0643 5.604C55.9523 5.38 55.8123 5.144 55.6443 4.896L56.5323 4.524C56.6923 4.756 56.8363 4.988 56.9643 5.22C57.0923 5.452 57.2003 5.7 57.2883 5.964C57.3843 6.22 57.4563 6.492 57.5043 6.78C57.5603 7.068 57.5883 7.38 57.5883 7.716C57.5883 8.7 57.4043 9.436 57.0363 9.924C56.6763 10.404 56.1923 10.644 55.5843 10.644C55.2483 10.644 54.9363 10.56 54.6483 10.392C54.3683 10.224 54.1563 9.956 54.0123 9.588H53.9643C53.8123 9.956 53.6003 10.224 53.3283 10.392C53.0643 10.56 52.7643 10.644 52.4283 10.644ZM53.5923 3.672L54.1083 1.26L55.1283 1.44L54.2763 3.804L53.5923 3.672ZM60.1691 10.5C60.0571 9.964 59.9251 9.436 59.7731 8.916C59.6211 8.388 59.4491 7.88 59.2571 7.392C59.0651 6.904 58.8571 6.44 58.6331 6C58.4091 5.56 58.1731 5.152 57.9251 4.776L58.9211 4.524C59.1211 4.836 59.3171 5.196 59.5091 5.604C59.7011 6.012 59.8771 6.44 60.0371 6.888C60.2051 7.328 60.3531 7.772 60.4811 8.22C60.6091 8.668 60.7171 9.088 60.8051 9.48H60.8531C61.2131 8.728 61.5251 7.936 61.7891 7.104C62.0611 6.272 62.2331 5.46 62.3051 4.668H63.3011C63.2211 5.172 63.1171 5.664 62.9891 6.144C62.8691 6.624 62.7211 7.1 62.5451 7.572C62.3691 8.044 62.1651 8.524 61.9331 9.012C61.7011 9.492 61.4371 9.988 61.1411 10.5H60.1691ZM66.3747 10.644C65.6707 10.644 65.1227 10.456 64.7307 10.08C64.3467 9.696 64.1547 9.116 64.1547 8.34C64.1547 7.988 64.1627 7.644 64.1787 7.308C64.1947 6.964 64.2027 6.616 64.2027 6.264C64.2027 6.032 64.1947 5.784 64.1787 5.52C64.1707 5.256 64.1467 4.972 64.1067 4.668H65.0667C65.1067 4.876 65.1307 5.092 65.1387 5.316C65.1547 5.532 65.1627 5.768 65.1627 6.024C65.1627 6.192 65.1587 6.376 65.1507 6.576C65.1427 6.768 65.1347 6.972 65.1267 7.188C65.1187 7.396 65.1107 7.604 65.1027 7.812C65.0947 8.02 65.0907 8.212 65.0907 8.388C65.0907 8.652 65.1227 8.876 65.1867 9.06C65.2587 9.236 65.3547 9.384 65.4747 9.504C65.5947 9.616 65.7307 9.7 65.8827 9.756C66.0427 9.804 66.2107 9.828 66.3867 9.828C66.8107 9.828 67.1587 9.652 67.4307 9.3C67.7107 8.94 67.8507 8.38 67.8507 7.62C67.8507 7.172 67.8147 6.716 67.7427 6.252C67.6787 5.788 67.5547 5.288 67.3707 4.752L68.3307 4.524C68.4987 5.028 68.6267 5.536 68.7147 6.048C68.8027 6.552 68.8467 7.064 68.8467 7.584C68.8467 8.08 68.7867 8.52 68.6667 8.904C68.5467 9.28 68.3787 9.6 68.1627 9.864C67.9467 10.12 67.6867 10.316 67.3827 10.452C67.0787 10.58 66.7427 10.644 66.3747 10.644ZM70.3379 12.648V4.668H71.3219V8.232C71.3219 8.752 71.4019 9.144 71.5619 9.408C71.7299 9.664 72.0059 9.792 72.3899 9.792C72.5179 9.792 72.6459 9.78 72.7739 9.756C72.9019 9.724 73.0299 9.668 73.1579 9.588C73.2859 9.5 73.4139 9.384 73.5419 9.24C73.6699 9.088 73.8019 8.892 73.9379 8.652V4.668H74.9339C74.9179 5.46 74.9019 6.264 74.8859 7.08C74.8699 7.896 74.8619 8.656 74.8619 9.36C74.8619 9.52 74.9019 9.64 74.9819 9.72C75.0619 9.792 75.1659 9.828 75.2939 9.828C75.3899 9.828 75.5059 9.804 75.6419 9.756L75.7739 10.5C75.6859 10.54 75.5859 10.572 75.4739 10.596C75.3699 10.628 75.2379 10.644 75.0779 10.644C74.7419 10.644 74.4899 10.556 74.3219 10.38C74.1619 10.196 74.0619 9.908 74.0219 9.516H73.9979C73.7899 9.892 73.5459 10.172 73.2659 10.356C72.9939 10.532 72.6979 10.62 72.3779 10.62C72.1459 10.62 71.9339 10.584 71.7419 10.512C71.5499 10.44 71.3859 10.288 71.2499 10.056C71.2499 10.344 71.2499 10.596 71.2499 10.812C71.2579 11.036 71.2659 11.244 71.2739 11.436C71.2819 11.628 71.2899 11.82 71.2979 12.012C71.3059 12.204 71.3179 12.416 71.3339 12.648H70.3379ZM79.0407 10.644C78.6807 10.644 78.3367 10.576 78.0087 10.44C77.6887 10.304 77.4087 10.108 77.1687 9.852C76.9287 9.588 76.7367 9.268 76.5927 8.892C76.4567 8.516 76.3887 8.084 76.3887 7.596C76.3887 7.108 76.4567 6.672 76.5927 6.288C76.7367 5.904 76.9287 5.584 77.1687 5.328C77.4087 5.064 77.6887 4.864 78.0087 4.728C78.3367 4.592 78.6807 4.524 79.0407 4.524C79.4087 4.524 79.7527 4.592 80.0727 4.728C80.4007 4.864 80.6847 5.064 80.9247 5.328C81.1647 5.584 81.3527 5.904 81.4887 6.288C81.6327 6.672 81.7047 7.108 81.7047 7.596C81.7047 8.084 81.6327 8.516 81.4887 8.892C81.3527 9.268 81.1647 9.588 80.9247 9.852C80.6847 10.108 80.4007 10.304 80.0727 10.44C79.7527 10.576 79.4087 10.644 79.0407 10.644ZM79.0407 9.828C79.5607 9.828 79.9647 9.628 80.2527 9.228C80.5407 8.82 80.6847 8.276 80.6847 7.596C80.6847 6.916 80.5407 6.372 80.2527 5.964C79.9647 5.548 79.5607 5.34 79.0407 5.34C78.5207 5.34 78.1167 5.548 77.8287 5.964C77.5487 6.372 77.4087 6.916 77.4087 7.596C77.4087 8.276 77.5487 8.82 77.8287 9.228C78.1167 9.628 78.5207 9.828 79.0407 9.828Z" fill="#333333"/>
<mask id="mask3" mask-type="alpha" maskUnits="userSpaceOnUse" x="0" y="259" width="619" height="46">
<rect y="259" width="619" height="46" rx="4" fill="white"/>
</mask>
<g mask="url(#mask3)">
<path fill-rule="evenodd" clip-rule="evenodd" d="M0 259H619V305H0V259Z" fill="white"/>
</g>
<path d="M0.5 263C0.5 261.067 2.067 259.5 4 259.5H615C616.933 259.5 618.5 261.067 618.5 263V374C618.5 375.933 616.933 377.5 615 377.5H4C2.067 377.5 0.5 375.933 0.5 374V263Z" stroke="#B6B6B6"/>
<path d="M1.08 250.5V242.628H2.28L3.792 246.828C3.888 247.1 3.98 247.376 4.068 247.656C4.164 247.928 4.26 248.2 4.356 248.472H4.404C4.5 248.2 4.588 247.928 4.668 247.656C4.756 247.376 4.848 247.1 4.944 246.828L6.432 242.628H7.644V250.5H6.708V246.168C6.708 245.816 6.724 245.428 6.756 245.004C6.788 244.58 6.816 244.192 6.84 243.84H6.792L6.168 245.628L4.68 249.708H4.02L2.532 245.628L1.908 243.84H1.86C1.884 244.192 1.908 244.58 1.932 245.004C1.964 245.428 1.98 245.816 1.98 246.168V250.5H1.08ZM13.1528 252.648C13.1768 251.688 13.1928 250.708 13.2008 249.708C13.2168 248.708 13.2248 247.784 13.2248 246.936C13.2248 246.384 13.1528 245.988 13.0088 245.748C12.8648 245.5 12.6208 245.376 12.2768 245.376C12.1168 245.376 11.9648 245.4 11.8208 245.448C11.6848 245.488 11.5488 245.56 11.4128 245.664C11.2768 245.768 11.1368 245.904 10.9928 246.072C10.8568 246.232 10.7048 246.436 10.5368 246.684V250.5H9.55275V246.264C9.55275 246.032 9.54875 245.784 9.54075 245.52C9.53275 245.256 9.50875 244.972 9.46875 244.668H10.3688L10.4528 245.88H10.4888C10.7928 245.424 11.1048 245.084 11.4248 244.86C11.7528 244.636 12.1328 244.524 12.5648 244.524C13.1328 244.524 13.5368 244.716 13.7768 245.1C14.0248 245.484 14.1488 246.052 14.1488 246.804V252.648H13.1528ZM11.6528 243.672L12.1688 241.26L13.1888 241.44L12.3368 243.804L11.6528 243.672ZM17.2269 250.5C17.1149 249.964 16.9829 249.436 16.8309 248.916C16.6789 248.388 16.5069 247.88 16.3149 247.392C16.1229 246.904 15.9149 246.44 15.6909 246C15.4669 245.56 15.2309 245.152 14.9829 244.776L15.9789 244.524C16.1789 244.836 16.3749 245.196 16.5669 245.604C16.7589 246.012 16.9349 246.44 17.0949 246.888C17.2629 247.328 17.4109 247.772 17.5389 248.22C17.6669 248.668 17.7749 249.088 17.8629 249.48H17.9109C18.2709 248.728 18.5829 247.936 18.8469 247.104C19.1189 246.272 19.2909 245.46 19.3629 244.668H20.3589C20.2789 245.172 20.1749 245.664 20.0469 246.144C19.9269 246.624 19.7789 247.1 19.6029 247.572C19.4269 248.044 19.2229 248.524 18.9909 249.012C18.7589 249.492 18.4949 249.988 18.1989 250.5H17.2269ZM23.4325 250.644C22.7285 250.644 22.1805 250.456 21.7885 250.08C21.4045 249.696 21.2125 249.116 21.2125 248.34C21.2125 247.988 21.2205 247.644 21.2365 247.308C21.2525 246.964 21.2605 246.616 21.2605 246.264C21.2605 246.032 21.2525 245.784 21.2365 245.52C21.2285 245.256 21.2045 244.972 21.1645 244.668H22.1245C22.1645 244.876 22.1885 245.092 22.1965 245.316C22.2125 245.532 22.2205 245.768 22.2205 246.024C22.2205 246.192 22.2165 246.376 22.2085 246.576C22.2005 246.768 22.1925 246.972 22.1845 247.188C22.1765 247.396 22.1685 247.604 22.1605 247.812C22.1525 248.02 22.1485 248.212 22.1485 248.388C22.1485 248.652 22.1805 248.876 22.2445 249.06C22.3165 249.236 22.4125 249.384 22.5325 249.504C22.6525 249.616 22.7885 249.7 22.9405 249.756C23.1005 249.804 23.2685 249.828 23.4445 249.828C23.8685 249.828 24.2165 249.652 24.4885 249.3C24.7685 248.94 24.9085 248.38 24.9085 247.62C24.9085 247.172 24.8725 246.716 24.8005 246.252C24.7365 245.788 24.6125 245.288 24.4285 244.752L25.3885 244.524C25.5565 245.028 25.6845 245.536 25.7725 246.048C25.8605 246.552 25.9045 247.064 25.9045 247.584C25.9045 248.08 25.8445 248.52 25.7245 248.904C25.6045 249.28 25.4365 249.6 25.2205 249.864C25.0045 250.12 24.7445 250.316 24.4405 250.452C24.1365 250.58 23.8005 250.644 23.4325 250.644ZM27.3957 252.648V244.668H28.3797V248.232C28.3797 248.752 28.4597 249.144 28.6197 249.408C28.7877 249.664 29.0637 249.792 29.4477 249.792C29.5757 249.792 29.7037 249.78 29.8317 249.756C29.9597 249.724 30.0877 249.668 30.2157 249.588C30.3437 249.5 30.4717 249.384 30.5997 249.24C30.7277 249.088 30.8597 248.892 30.9957 248.652V244.668H31.9917C31.9757 245.46 31.9597 246.264 31.9437 247.08C31.9277 247.896 31.9197 248.656 31.9197 249.36C31.9197 249.52 31.9597 249.64 32.0397 249.72C32.1197 249.792 32.2237 249.828 32.3517 249.828C32.4477 249.828 32.5637 249.804 32.6997 249.756L32.8317 250.5C32.7437 250.54 32.6437 250.572 32.5317 250.596C32.4277 250.628 32.2957 250.644 32.1357 250.644C31.7997 250.644 31.5477 250.556 31.3797 250.38C31.2197 250.196 31.1197 249.908 31.0797 249.516H31.0557C30.8477 249.892 30.6037 250.172 30.3237 250.356C30.0517 250.532 29.7557 250.62 29.4357 250.62C29.2037 250.62 28.9917 250.584 28.7997 250.512C28.6077 250.44 28.4437 250.288 28.3077 250.056C28.3077 250.344 28.3077 250.596 28.3077 250.812C28.3157 251.036 28.3237 251.244 28.3317 251.436C28.3397 251.628 28.3477 251.82 28.3557 252.012C28.3637 252.204 28.3757 252.416 28.3917 252.648H27.3957ZM35.7257 250.644C35.3897 250.644 35.0857 250.58 34.8137 250.452C34.5417 250.324 34.3057 250.136 34.1057 249.888C33.9057 249.632 33.7497 249.324 33.6377 248.964C33.5337 248.596 33.4817 248.172 33.4817 247.692C33.4817 247.188 33.5497 246.74 33.6857 246.348C33.8297 245.956 34.0177 245.628 34.2497 245.364C34.4897 245.092 34.7617 244.884 35.0657 244.74C35.3777 244.596 35.7017 244.524 36.0377 244.524C36.3977 244.524 36.7457 244.64 37.0817 244.872C37.4177 245.104 37.6697 245.496 37.8377 246.048H37.8617L38.1137 244.668H39.0857C39.0057 245.052 38.9217 245.456 38.8337 245.88C38.7537 246.296 38.6777 246.708 38.6057 247.116C38.5337 247.524 38.4737 247.912 38.4257 248.28C38.3777 248.64 38.3537 248.952 38.3537 249.216C38.3537 249.416 38.4097 249.568 38.5217 249.672C38.6337 249.776 38.7697 249.828 38.9297 249.828C38.9937 249.828 39.0617 249.82 39.1337 249.804C39.2057 249.78 39.2737 249.756 39.3377 249.732L39.4817 250.488C39.3937 250.528 39.2897 250.564 39.1697 250.596C39.0497 250.628 38.9017 250.644 38.7257 250.644C38.3737 250.644 38.0937 250.548 37.8857 250.356C37.6777 250.164 37.5737 249.864 37.5737 249.456H37.5377C37.0897 250.248 36.4857 250.644 35.7257 250.644ZM35.9297 249.816C36.1217 249.816 36.3097 249.768 36.4937 249.672C36.6777 249.576 36.8417 249.448 36.9857 249.288C37.1297 249.12 37.2497 248.928 37.3457 248.712C37.4417 248.488 37.4977 248.252 37.5137 248.004L37.6097 246.912C37.5297 246.592 37.4337 246.332 37.3217 246.132C37.2097 245.932 37.0897 245.776 36.9617 245.664C36.8337 245.544 36.6977 245.464 36.5537 245.424C36.4177 245.376 36.2817 245.352 36.1457 245.352C35.9377 245.352 35.7337 245.404 35.5337 245.508C35.3337 245.604 35.1577 245.748 35.0057 245.94C34.8537 246.132 34.7297 246.376 34.6337 246.672C34.5457 246.96 34.5017 247.296 34.5017 247.68C34.5017 248.36 34.6257 248.888 34.8737 249.264C35.1217 249.632 35.4737 249.816 35.9297 249.816Z" fill="#333333"/>
<mask id="mask4" mask-type="alpha" maskUnits="userSpaceOnUse" x="0" y="99" width="619" height="46">
<rect y="99" width="619" height="46" rx="4" fill="white"/>
</mask>
<g mask="url(#mask4)">
<path fill-rule="evenodd" clip-rule="evenodd" d="M0 99H619V145H0V99Z" fill="white"/>
<path d="M4 99.5H615C616.933 99.5 618.5 101.067 618.5 103V141C618.5 142.933 616.933 144.5 615 144.5H4C2.067 144.5 0.5 142.933 0.5 141V103C0.5 101.067 2.067 99.5 4 99.5Z" stroke="#B6B6B6"/>
<path fill-rule="evenodd" clip-rule="evenodd" d="M21.8508 122.904C22.3866 123.105 22.9893 123.239 23.5921 123.306C24.5966 123.44 25.3333 124.311 25.3333 125.315V127.324C25.3333 127.86 25.0654 128.329 24.7306 128.731C24.3957 129.133 23.86 129.333 23.3242 129.333H23.1233C20.9802 129.133 18.8371 128.396 17.0289 127.19C15.3546 126.119 13.8813 124.645 12.8097 122.971C11.6712 121.163 10.8676 119.02 10.6667 116.877C10.6667 116.341 10.8006 115.805 11.1355 115.403C11.4703 115.002 11.9391 114.734 12.4749 114.667H12.6758H14.6849C15.6895 114.667 16.5601 115.403 16.6941 116.408C16.761 117.011 16.895 117.613 17.0959 118.149C17.3638 118.886 17.1629 119.757 16.6271 120.292L16.1583 120.761C16.9619 122.034 18.0335 123.038 19.239 123.842L19.7078 123.373C20.3105 122.837 21.1141 122.636 21.8508 122.904ZM23.9939 127.324V125.315C23.9939 124.98 23.726 124.712 23.4581 124.645C22.7884 124.511 22.1187 124.378 21.449 124.11C21.1811 123.976 20.9132 124.043 20.7123 124.244L19.8417 125.114C19.6408 125.382 19.3059 125.382 19.038 125.248C17.2298 124.244 15.7565 122.77 14.7519 120.962C14.6179 120.694 14.6849 120.359 14.8858 120.158L15.7565 119.355C15.8904 119.154 15.9574 118.886 15.8904 118.618C15.6225 118.015 15.4216 117.279 15.3546 116.609C15.2877 116.274 15.0198 116.006 14.6849 116.006H12.6758C12.4749 116.006 12.274 116.14 12.14 116.274C12.073 116.408 12.0061 116.542 12.0061 116.743C12.207 118.685 12.8767 120.56 13.9482 122.234C14.9528 123.775 16.2252 125.114 17.7656 126.052C19.4399 127.123 21.3151 127.793 23.2572 127.994C23.5251 127.994 23.659 127.927 23.793 127.793C23.9269 127.659 23.9939 127.525 23.9939 127.324Z" fill="black"/>
<mask id="mask5" mask-type="alpha" maskUnits="userSpaceOnUse" x="10" y="114" width="16" height="16">
<path fill-rule="evenodd" clip-rule="evenodd" d="M21.8508 122.904C22.3866 123.105 22.9893 123.239 23.5921 123.306C24.5966 123.44 25.3333 124.311 25.3333 125.315V127.324C25.3333 127.86 25.0654 128.329 24.7306 128.731C24.3957 129.133 23.86 129.333 23.3242 129.333H23.1233C20.9802 129.133 18.8371 128.396 17.0289 127.19C15.3546 126.119 13.8813 124.645 12.8097 122.971C11.6712 121.163 10.8676 119.02 10.6667 116.877C10.6667 116.341 10.8006 115.805 11.1355 115.403C11.4703 115.002 11.9391 114.734 12.4749 114.667H12.6758H14.6849C15.6895 114.667 16.5601 115.403 16.6941 116.408C16.761 117.011 16.895 117.613 17.0959 118.149C17.3638 118.886 17.1629 119.757 16.6271 120.292L16.1583 120.761C16.9619 122.034 18.0335 123.038 19.239 123.842L19.7078 123.373C20.3105 122.837 21.1141 122.636 21.8508 122.904ZM23.9939 127.324V125.315C23.9939 124.98 23.726 124.712 23.4581 124.645C22.7884 124.511 22.1187 124.378 21.449 124.11C21.1811 123.976 20.9132 124.043 20.7123 124.244L19.8417 125.114C19.6408 125.382 19.3059 125.382 19.038 125.248C17.2298 124.244 15.7565 122.77 14.7519 120.962C14.6179 120.694 14.6849 120.359 14.8858 120.158L15.7565 119.355C15.8904 119.154 15.9574 118.886 15.8904 118.618C15.6225 118.015 15.4216 117.279 15.3546 116.609C15.2877 116.274 15.0198 116.006 14.6849 116.006H12.6758C12.4749 116.006 12.274 116.14 12.14 116.274C12.073 116.408 12.0061 116.542 12.0061 116.743C12.207 118.685 12.8767 120.56 13.9482 122.234C14.9528 123.775 16.2252 125.114 17.7656 126.052C19.4399 127.123 21.3151 127.793 23.2572 127.994C23.5251 127.994 23.659 127.927 23.793 127.793C23.9269 127.659 23.9939 127.525 23.9939 127.324Z" fill="white"/>
</mask>
<g mask="url(#mask5)">
<path fill-rule="evenodd" clip-rule="evenodd" d="M10 114H26V130H10V114Z" fill="#666666"/>
</g>
</g>
<path d="M2.712 90.5V83.468H0.336V82.628H6.096V83.468H3.72V90.5H2.712ZM10.3168 92.648C10.3408 91.688 10.3568 90.708 10.3648 89.708C10.3808 88.708 10.3888 87.784 10.3888 86.936C10.3888 86.384 10.3168 85.988 10.1728 85.748C10.0288 85.5 9.78481 85.376 9.44081 85.376C9.28081 85.376 9.12881 85.4 8.98481 85.448C8.84881 85.488 8.71281 85.56 8.57681 85.664C8.44081 85.768 8.30081 85.904 8.15681 86.072C8.02081 86.232 7.86881 86.436 7.70081 86.684V90.5H6.71681V86.264C6.71681 86.032 6.71281 85.784 6.70481 85.52C6.69681 85.256 6.67281 84.972 6.63281 84.668H7.53281L7.61681 85.88H7.65281C7.95681 85.424 8.26881 85.084 8.58881 84.86C8.91681 84.636 9.29681 84.524 9.72881 84.524C10.2968 84.524 10.7008 84.716 10.9408 85.1C11.1888 85.484 11.3128 86.052 11.3128 86.804V92.648H10.3168ZM13.311 90.596L12.267 90.5L14.799 84.536L14.727 84.284C14.567 83.748 14.379 83.344 14.163 83.072C13.955 82.792 13.683 82.652 13.347 82.652C13.187 82.652 13.047 82.672 12.927 82.712C12.815 82.752 12.703 82.796 12.591 82.844L12.351 82.028C12.487 81.964 12.639 81.912 12.807 81.872C12.975 81.832 13.191 81.812 13.455 81.812C14.031 81.812 14.487 82.024 14.823 82.448C15.159 82.864 15.455 83.492 15.711 84.332L17.919 90.5H16.875L15.267 85.664H15.219L13.311 90.596ZM20.8667 90.644C20.5067 90.644 20.1747 90.604 19.8707 90.524C19.5747 90.444 19.3147 90.328 19.0907 90.176C18.8747 90.024 18.7067 89.84 18.5867 89.624C18.4667 89.408 18.4067 89.164 18.4067 88.892C18.4067 88.468 18.5227 88.144 18.7547 87.92C18.9947 87.688 19.2827 87.528 19.6187 87.44V87.392C19.3147 87.28 19.0827 87.104 18.9227 86.864C18.7707 86.624 18.6947 86.368 18.6947 86.096C18.6947 85.832 18.7547 85.6 18.8747 85.4C18.9947 85.2 19.1547 85.036 19.3547 84.908C19.5627 84.78 19.7987 84.684 20.0627 84.62C20.3347 84.556 20.6227 84.524 20.9267 84.524C21.2787 84.524 21.6107 84.58 21.9227 84.692C22.2427 84.804 22.5387 84.96 22.8107 85.16L22.4147 85.82C22.1827 85.652 21.9467 85.524 21.7067 85.436C21.4747 85.348 21.2227 85.304 20.9507 85.304C20.5907 85.304 20.2867 85.38 20.0387 85.532C19.7987 85.684 19.6787 85.912 19.6787 86.216C19.6787 86.48 19.7827 86.696 19.9907 86.864C20.1987 87.032 20.5387 87.116 21.0107 87.116C21.1227 87.116 21.2347 87.116 21.3467 87.116C21.4587 87.108 21.5907 87.096 21.7427 87.08V87.848C21.5667 87.832 21.4067 87.824 21.2627 87.824C21.1187 87.824 20.9747 87.824 20.8307 87.824C19.8707 87.824 19.3907 88.152 19.3907 88.808C19.3907 89.136 19.5267 89.392 19.7987 89.576C20.0787 89.76 20.4707 89.852 20.9747 89.852C21.2547 89.852 21.5187 89.808 21.7667 89.72C22.0227 89.632 22.2907 89.48 22.5707 89.264L22.9907 89.924C22.6387 90.196 22.2987 90.384 21.9707 90.488C21.6427 90.592 21.2747 90.644 20.8667 90.644ZM20.4227 83.672L20.9387 81.26L21.9587 81.44L21.1067 83.804L20.4227 83.672ZM24.4915 87.572C24.4915 87.924 24.5435 88.24 24.6475 88.52C24.7595 88.792 24.9075 89.024 25.0915 89.216C25.2755 89.408 25.4915 89.56 25.7395 89.672C25.9955 89.784 26.2635 89.844 26.5435 89.852V85.316C26.2635 85.332 25.9955 85.392 25.7395 85.496C25.4915 85.6 25.2755 85.748 25.0915 85.94C24.9075 86.132 24.7595 86.368 24.6475 86.648C24.5435 86.92 24.4915 87.228 24.4915 87.572ZM29.5075 87.572C29.5075 86.876 29.3155 86.332 28.9315 85.94C28.5555 85.548 28.0635 85.34 27.4555 85.316V89.852C27.7435 89.844 28.0115 89.784 28.2595 89.672C28.5075 89.56 28.7235 89.408 28.9075 89.216C29.0915 89.024 29.2355 88.792 29.3395 88.52C29.4515 88.24 29.5075 87.924 29.5075 87.572ZM26.5435 92.648V90.608C26.1435 90.6 25.7595 90.528 25.3915 90.392C25.0235 90.248 24.6955 90.048 24.4075 89.792C24.1275 89.528 23.8995 89.212 23.7235 88.844C23.5555 88.476 23.4715 88.052 23.4715 87.572C23.4715 87.1 23.5555 86.68 23.7235 86.312C23.8995 85.944 24.1275 85.632 24.4075 85.376C24.6955 85.12 25.0235 84.924 25.3915 84.788C25.7595 84.652 26.1435 84.576 26.5435 84.56V83.036H27.4555V84.56C27.8635 84.576 28.2515 84.652 28.6195 84.788C28.9875 84.924 29.3115 85.12 29.5915 85.376C29.8795 85.632 30.1075 85.944 30.2755 86.312C30.4435 86.68 30.5275 87.1 30.5275 87.572C30.5275 88.052 30.4395 88.476 30.2635 88.844C30.0955 89.212 29.8675 89.528 29.5795 89.792C29.2995 90.048 28.9715 90.248 28.5955 90.392C28.2275 90.528 27.8475 90.6 27.4555 90.608V92.648H26.5435ZM33.5658 90.644C33.2778 90.644 33.0098 90.584 32.7618 90.464C32.5138 90.344 32.2978 90.164 32.1138 89.924C31.9378 89.684 31.7978 89.384 31.6938 89.024C31.5898 88.656 31.5378 88.232 31.5378 87.752C31.5378 87.128 31.6418 86.548 31.8498 86.012C32.0578 85.476 32.3138 84.98 32.6178 84.524L33.5178 84.92C33.3498 85.16 33.2018 85.396 33.0738 85.628C32.9458 85.852 32.8378 86.084 32.7498 86.324C32.6618 86.564 32.5938 86.816 32.5458 87.08C32.5058 87.344 32.4858 87.628 32.4858 87.932C32.4858 88.54 32.5898 89.008 32.7978 89.336C33.0138 89.664 33.2858 89.828 33.6138 89.828C33.7578 89.828 33.8938 89.804 34.0218 89.756C34.1498 89.7 34.2618 89.616 34.3578 89.504C34.4538 89.384 34.5298 89.232 34.5858 89.048C34.6418 88.864 34.6698 88.636 34.6698 88.364C34.6698 88.124 34.6618 87.884 34.6458 87.644C34.6298 87.396 34.6058 87.116 34.5738 86.804H35.6538C35.6218 87.116 35.5978 87.396 35.5818 87.644C35.5658 87.884 35.5578 88.124 35.5578 88.364C35.5578 88.644 35.5858 88.88 35.6418 89.072C35.6978 89.256 35.7738 89.404 35.8698 89.516C35.9658 89.628 36.0778 89.708 36.2058 89.756C36.3338 89.804 36.4658 89.828 36.6018 89.828C36.9298 89.828 37.1978 89.664 37.4058 89.336C37.6138 89 37.7178 88.48 37.7178 87.776C37.7178 87.48 37.6978 87.212 37.6578 86.972C37.6258 86.724 37.5698 86.488 37.4898 86.264C37.4178 86.04 37.3218 85.82 37.2018 85.604C37.0898 85.38 36.9498 85.144 36.7818 84.896L37.6698 84.524C37.8298 84.756 37.9738 84.988 38.1018 85.22C38.2298 85.452 38.3378 85.7 38.4258 85.964C38.5218 86.22 38.5938 86.492 38.6418 86.78C38.6978 87.068 38.7258 87.38 38.7258 87.716C38.7258 88.7 38.5418 89.436 38.1738 89.924C37.8138 90.404 37.3298 90.644 36.7218 90.644C36.3858 90.644 36.0738 90.56 35.7858 90.392C35.5058 90.224 35.2938 89.956 35.1498 89.588H35.1018C34.9498 89.956 34.7378 90.224 34.4658 90.392C34.2018 90.56 33.9018 90.644 33.5658 90.644ZM41.3066 90.5C41.1946 89.964 41.0626 89.436 40.9106 88.916C40.7586 88.388 40.5866 87.88 40.3946 87.392C40.2026 86.904 39.9946 86.44 39.7706 86C39.5466 85.56 39.3106 85.152 39.0626 84.776L40.0586 84.524C40.2586 84.836 40.4546 85.196 40.6466 85.604C40.8386 86.012 41.0146 86.44 41.1746 86.888C41.3426 87.328 41.4906 87.772 41.6186 88.22C41.7466 88.668 41.8546 89.088 41.9426 89.48H41.9906C42.3506 88.728 42.6626 87.936 42.9266 87.104C43.1986 86.272 43.3706 85.46 43.4426 84.668H44.4386C44.3586 85.172 44.2546 85.664 44.1266 86.144C44.0066 86.624 43.8586 87.1 43.6826 87.572C43.5066 88.044 43.3026 88.524 43.0706 89.012C42.8386 89.492 42.5746 89.988 42.2786 90.5H41.3066ZM47.6462 90.644C47.2862 90.644 46.9422 90.576 46.6142 90.44C46.2942 90.304 46.0142 90.108 45.7742 89.852C45.5342 89.588 45.3422 89.268 45.1982 88.892C45.0622 88.516 44.9942 88.084 44.9942 87.596C44.9942 87.108 45.0622 86.672 45.1982 86.288C45.3422 85.904 45.5342 85.584 45.7742 85.328C46.0142 85.064 46.2942 84.864 46.6142 84.728C46.9422 84.592 47.2862 84.524 47.6462 84.524C48.0142 84.524 48.3582 84.592 48.6782 84.728C49.0062 84.864 49.2902 85.064 49.5302 85.328C49.7702 85.584 49.9582 85.904 50.0942 86.288C50.2382 86.672 50.3102 87.108 50.3102 87.596C50.3102 88.084 50.2382 88.516 50.0942 88.892C49.9582 89.268 49.7702 89.588 49.5302 89.852C49.2902 90.108 49.0062 90.304 48.6782 90.44C48.3582 90.576 48.0142 90.644 47.6462 90.644ZM47.6462 89.828C48.1662 89.828 48.5702 89.628 48.8582 89.228C49.1462 88.82 49.2902 88.276 49.2902 87.596C49.2902 86.916 49.1462 86.372 48.8582 85.964C48.5702 85.548 48.1662 85.34 47.6462 85.34C47.1262 85.34 46.7222 85.548 46.4342 85.964C46.1542 86.372 46.0142 86.916 46.0142 87.596C46.0142 88.276 46.1542 88.82 46.4342 89.228C46.7222 89.628 47.1262 89.828 47.6462 89.828Z" fill="#333333"/>
</svg>

