<svg width="240" height="50" viewBox="0 0 240 50" fill="none" xmlns="http://www.w3.org/2000/svg">
<mask id="mask0" mask-type="alpha" maskUnits="userSpaceOnUse" x="0" y="0" width="240" height="50">
<rect width="240" height="50" fill="white"/>
</mask>
<g mask="url(#mask0)">
<path fill-rule="evenodd" clip-rule="evenodd" d="M0 4C0 1.79086 1.79086 0 4 0H236C238.209 0 240 1.79086 240 4V46C240 48.2091 238.209 50 236 50H4C1.79086 50 0 48.2091 0 46V4Z" fill="#002868"/>
<path fill-rule="evenodd" clip-rule="evenodd" d="M0 4C0 1.79086 1.79086 0 4 0H236C238.209 0 240 1.79086 240 4V46C240 48.2091 238.209 50 236 50H4C1.79086 50 0 48.2091 0 46V4Z" fill="#BF0A30"/>
<path d="M89.3753 25.38L89.1513 26.22H91.0973L90.8873 25.38C90.7566 24.9227 90.6306 24.4373 90.5093 23.924C90.3879 23.4107 90.2666 22.916 90.1453 22.44H90.0893C89.9773 22.9253 89.8606 23.4247 89.7393 23.938C89.6273 24.442 89.5059 24.9227 89.3753 25.38ZM86.0713 30L88.9273 20.872H91.4053L94.2613 30H92.0773L91.5173 27.83H88.7313L88.1713 30H86.0713ZM95.2587 30V20.872H102.385V30H100.327V22.608H97.3167V30H95.2587ZM108.252 30.168C107.636 30.168 107.071 30.0607 106.558 29.846C106.054 29.622 105.62 29.3047 105.256 28.894C104.892 28.4833 104.607 27.984 104.402 27.396C104.206 26.808 104.108 26.1407 104.108 25.394C104.108 24.6473 104.206 23.9847 104.402 23.406C104.607 22.818 104.892 22.328 105.256 21.936C105.62 21.5347 106.054 21.2313 106.558 21.026C107.071 20.8113 107.636 20.704 108.252 20.704C108.868 20.704 109.428 20.8113 109.932 21.026C110.445 21.2313 110.884 21.5347 111.248 21.936C111.612 22.3373 111.892 22.832 112.088 23.42C112.293 23.9987 112.396 24.6567 112.396 25.394C112.396 26.1407 112.293 26.808 112.088 27.396C111.892 27.984 111.612 28.4833 111.248 28.894C110.884 29.3047 110.445 29.622 109.932 29.846C109.428 30.0607 108.868 30.168 108.252 30.168ZM108.252 28.39C108.877 28.39 109.372 28.124 109.736 27.592C110.1 27.0507 110.282 26.318 110.282 25.394C110.282 24.4793 110.1 23.7653 109.736 23.252C109.372 22.7387 108.877 22.482 108.252 22.482C107.627 22.482 107.132 22.7387 106.768 23.252C106.404 23.7653 106.222 24.4793 106.222 25.394C106.222 26.318 106.404 27.0507 106.768 27.592C107.132 28.124 107.627 28.39 108.252 28.39ZM113.115 30V28.754L115.943 25.394L113.157 22.118V20.872H119.415V22.608H115.733L118.001 25.338L115.691 28.264H119.793V30H113.115ZM122.671 30V22.608H120.165V20.872H127.249V22.608H124.743V30H122.671ZM131.986 30.168C131.37 30.168 130.806 30.0607 130.292 29.846C129.788 29.622 129.354 29.3047 128.99 28.894C128.626 28.4833 128.342 27.984 128.136 27.396C127.94 26.808 127.842 26.1407 127.842 25.394C127.842 24.6473 127.94 23.9847 128.136 23.406C128.342 22.818 128.626 22.328 128.99 21.936C129.354 21.5347 129.788 21.2313 130.292 21.026C130.806 20.8113 131.37 20.704 131.986 20.704C132.602 20.704 133.162 20.8113 133.666 21.026C134.18 21.2313 134.618 21.5347 134.982 21.936C135.346 22.3373 135.626 22.832 135.822 23.42C136.028 23.9987 136.13 24.6567 136.13 25.394C136.13 26.1407 136.028 26.808 135.822 27.396C135.626 27.984 135.346 28.4833 134.982 28.894C134.618 29.3047 134.18 29.622 133.666 29.846C133.162 30.0607 132.602 30.168 131.986 30.168ZM131.986 28.39C132.612 28.39 133.106 28.124 133.47 27.592C133.834 27.0507 134.016 26.318 134.016 25.394C134.016 24.4793 133.834 23.7653 133.47 23.252C133.106 22.7387 132.612 22.482 131.986 22.482C131.361 22.482 130.866 22.7387 130.502 23.252C130.138 23.7653 129.956 24.4793 129.956 25.394C129.956 26.318 130.138 27.0507 130.502 27.592C130.866 28.124 131.361 28.39 131.986 28.39ZM136.534 30L139.278 20.872H141.756L144.514 30H142.33L141.238 25.744C141.098 25.24 140.972 24.7547 140.86 24.288C140.757 23.812 140.641 23.322 140.51 22.818H140.454C140.314 23.322 140.188 23.812 140.076 24.288C139.964 24.7547 139.843 25.24 139.712 25.744L138.634 30H136.534ZM145.489 30V20.872H147.547V24.386H150.697V20.872H152.769V30H150.697V26.192H147.547V30H145.489Z" fill="white"/>
<path d="M221.7 25.7L215.7 31.7C215.5 31.9 215.3 32 215 32C214.7 32 214.5 31.9 214.3 31.7C213.9 31.3 213.9 30.7 214.3 30.3L219.6 25L214.3 19.7C213.9 19.3 213.9 18.7 214.3 18.3C214.7 17.9 215.3 17.9 215.7 18.3L221.7 24.3C222.1 24.7 222.1 25.3 221.7 25.7Z" fill="black"/>
<mask id="mask1" mask-type="alpha" maskUnits="userSpaceOnUse" x="214" y="18" width="8" height="14">
<path d="M221.7 25.7L215.7 31.7C215.5 31.9 215.3 32 215 32C214.7 32 214.5 31.9 214.3 31.7C213.9 31.3 213.9 30.7 214.3 30.3L219.6 25L214.3 19.7C213.9 19.3 213.9 18.7 214.3 18.3C214.7 17.9 215.3 17.9 215.7 18.3L221.7 24.3C222.1 24.7 222.1 25.3 221.7 25.7Z" fill="white"/>
</mask>
<g mask="url(#mask1)">
<rect x="206" y="13" width="24" height="24" fill="white"/>
</g>
</g>
</svg>
