<svg width="150" height="24" viewBox="0 0 150 24" fill="none" xmlns="http://www.w3.org/2000/svg">
<path d="M30.078 16V6.872H35.79V8.608H32.136V10.442H35.244V12.164H32.136V14.264H35.93V16H30.078ZM38.8634 18.478C38.8821 18.338 38.8961 18.2027 38.9054 18.072C38.9241 17.9413 38.9334 17.806 38.9334 17.666C38.9428 17.526 38.9474 17.3673 38.9474 17.19C38.9568 17.022 38.9614 16.8167 38.9614 16.574C38.9614 16.1353 38.8868 15.6127 38.7374 15.006C38.5974 14.39 38.4061 13.7507 38.1634 13.088C37.9208 12.416 37.6361 11.7533 37.3094 11.1C36.9828 10.4467 36.6328 9.85867 36.2594 9.336L38.3594 8.888C38.5088 9.12133 38.6674 9.41067 38.8354 9.756C39.0034 10.1013 39.1668 10.484 39.3254 10.904C39.4934 11.3147 39.6521 11.758 39.8014 12.234C39.9508 12.7007 40.0908 13.1813 40.2214 13.676H40.2774C40.9681 12.2573 41.3601 10.7173 41.4534 9.056H43.4974C43.3948 9.644 43.2781 10.1947 43.1474 10.708C43.0261 11.2213 42.8674 11.744 42.6714 12.276C42.4754 12.7987 42.2281 13.3447 41.9294 13.914C41.6308 14.4833 41.2574 15.118 40.8094 15.818C40.8841 16.2567 40.9308 16.7093 40.9494 17.176C40.9774 17.652 40.9914 18.086 40.9914 18.478H38.8634ZM45.7677 18.478C45.7864 18.338 45.8004 18.2027 45.8097 18.072C45.8284 17.9413 45.8377 17.806 45.8377 17.666C45.8471 17.526 45.8517 17.3673 45.8517 17.19C45.8611 17.022 45.8657 16.8167 45.8657 16.574C45.8657 16.1353 45.7911 15.6127 45.6417 15.006C45.5017 14.39 45.3104 13.7507 45.0677 13.088C44.8251 12.416 44.5404 11.7533 44.2137 11.1C43.8871 10.4467 43.5371 9.85867 43.1637 9.336L45.2637 8.888C45.4131 9.12133 45.5717 9.41067 45.7397 9.756C45.9077 10.1013 46.0711 10.484 46.2297 10.904C46.3977 11.3147 46.5564 11.758 46.7057 12.234C46.8551 12.7007 46.9951 13.1813 47.1257 13.676H47.1817C47.8724 12.2573 48.2644 10.7173 48.3577 9.056H50.4017C50.2991 9.644 50.1824 10.1947 50.0517 10.708C49.9304 11.2213 49.7717 11.744 49.5757 12.276C49.3797 12.7987 49.1324 13.3447 48.8337 13.914C48.5351 14.4833 48.1617 15.118 47.7137 15.818C47.7884 16.2567 47.8351 16.7093 47.8537 17.176C47.8817 17.652 47.8957 18.086 47.8957 18.478H45.7677ZM51.3599 18.478V12.682C51.3599 12.0287 51.4439 11.464 51.6119 10.988C51.7799 10.5027 52.0132 10.106 52.3119 9.798C52.6105 9.49 52.9605 9.26133 53.3619 9.112C53.7632 8.96267 54.2019 8.888 54.6779 8.888C55.6952 8.888 56.4885 9.196 57.0579 9.812C57.6272 10.428 57.9119 11.296 57.9119 12.416C57.9119 13.0133 57.8279 13.5453 57.6599 14.012C57.5012 14.4693 57.2865 14.8613 57.0159 15.188C56.7545 15.5053 56.4512 15.748 56.1059 15.916C55.7605 16.084 55.4059 16.168 55.0419 16.168C54.7432 16.168 54.4399 16.112 54.1319 16C53.8239 15.8973 53.5439 15.6967 53.2919 15.398C53.3199 15.93 53.3432 16.448 53.3619 16.952C53.3899 17.456 53.4132 17.9647 53.4319 18.478H51.3599ZM54.5519 14.488C54.8972 14.488 55.1912 14.3293 55.4339 14.012C55.6859 13.6853 55.8119 13.1627 55.8119 12.444C55.8119 11.1933 55.4105 10.568 54.6079 10.568C54.2159 10.568 53.8985 10.7407 53.6559 11.086C53.4132 11.4313 53.2919 11.898 53.2919 12.486V13.928C53.5065 14.152 53.7165 14.3013 53.9219 14.376C54.1365 14.4507 54.3465 14.488 54.5519 14.488ZM61.7666 16.168C61.3466 16.168 60.9639 16.0887 60.6186 15.93C60.2826 15.762 59.9886 15.524 59.7366 15.216C59.4939 14.908 59.3072 14.53 59.1766 14.082C59.0459 13.634 58.9806 13.1253 58.9806 12.556C58.9806 11.9867 59.0646 11.4733 59.2326 11.016C59.4006 10.5587 59.6246 10.176 59.9046 9.868C60.1939 9.55067 60.5206 9.308 60.8846 9.14C61.2579 8.972 61.6452 8.888 62.0466 8.888C62.4386 8.888 62.7979 8.99533 63.1246 9.21C63.4606 9.41533 63.7406 9.77 63.9646 10.274H64.0206L64.2446 9.056H66.2746C66.1812 9.45733 66.0832 9.88667 65.9806 10.344C65.8779 10.792 65.7799 11.2353 65.6866 11.674C65.6026 12.1033 65.5279 12.514 65.4626 12.906C65.4066 13.2887 65.3786 13.6107 65.3786 13.872C65.3786 14.1053 65.4392 14.2687 65.5606 14.362C65.6912 14.4553 65.8546 14.502 66.0506 14.502C66.1906 14.502 66.3399 14.474 66.4986 14.418L66.7506 15.93C66.6199 15.9953 66.4519 16.0513 66.2466 16.098C66.0506 16.1447 65.8126 16.168 65.5326 16.168C65.0379 16.168 64.6459 16.084 64.3566 15.916C64.0766 15.7387 63.8712 15.44 63.7406 15.02H63.6986C63.2319 15.7853 62.5879 16.168 61.7666 16.168ZM62.2566 14.488C62.4059 14.488 62.5552 14.4507 62.7046 14.376C62.8539 14.292 62.9846 14.1847 63.0966 14.054C63.2179 13.914 63.3159 13.7553 63.3906 13.578C63.4652 13.3913 63.5072 13.1953 63.5166 12.99L63.6146 11.786C63.3252 10.974 62.9099 10.568 62.3686 10.568C62.2099 10.568 62.0512 10.6053 61.8926 10.68C61.7432 10.7547 61.6079 10.876 61.4866 11.044C61.3746 11.2027 61.2812 11.408 61.2066 11.66C61.1319 11.9027 61.0946 12.1967 61.0946 12.542C61.0946 13.214 61.1972 13.7087 61.4026 14.026C61.6172 14.334 61.9019 14.488 62.2566 14.488ZM69.4207 12.528C69.4207 13.172 69.5654 13.6667 69.8547 14.012C70.1441 14.3573 70.5361 14.544 71.0307 14.572V10.484C70.5361 10.512 70.1441 10.6987 69.8547 11.044C69.5654 11.3893 69.4207 11.884 69.4207 12.528ZM74.5167 12.528C74.5167 11.884 74.3721 11.3893 74.0827 11.044C73.8027 10.6987 73.4107 10.512 72.9067 10.484V14.572C73.4014 14.544 73.7934 14.3573 74.0827 14.012C74.3721 13.6667 74.5167 13.172 74.5167 12.528ZM71.0307 18.478V16.112C70.5454 16.084 70.0787 15.9907 69.6307 15.832C69.1827 15.664 68.7861 15.4307 68.4407 15.132C68.0954 14.824 67.8201 14.4553 67.6147 14.026C67.4094 13.5873 67.3067 13.088 67.3067 12.528C67.3067 11.968 67.4094 11.4733 67.6147 11.044C67.8201 10.6053 68.0954 10.2367 68.4407 9.938C68.7861 9.63 69.1827 9.39667 69.6307 9.238C70.0787 9.07 70.5454 8.972 71.0307 8.944V7.208H72.9067V8.944C73.3921 8.972 73.8587 9.07 74.3067 9.238C74.7547 9.39667 75.1514 9.63 75.4967 9.938C75.8421 10.2367 76.1174 10.6053 76.3227 11.044C76.5281 11.4733 76.6307 11.968 76.6307 12.528C76.6307 13.088 76.5281 13.5873 76.3227 14.026C76.1174 14.4553 75.8421 14.824 75.4967 15.132C75.1514 15.4307 74.7547 15.664 74.3067 15.832C73.8587 15.9907 73.3921 16.084 72.9067 16.112V18.478H71.0307ZM82.0807 18.478C82.0993 17.9367 82.118 17.3627 82.1367 16.756C82.1553 16.1587 82.1693 15.5707 82.1787 14.992C82.1973 14.4133 82.2113 13.8627 82.2207 13.34C82.23 12.8173 82.2347 12.3553 82.2347 11.954C82.2347 11.45 82.174 11.1047 82.0527 10.918C81.9313 10.7313 81.7167 10.638 81.4087 10.638C81.166 10.638 80.942 10.722 80.7367 10.89C80.5407 11.058 80.3307 11.31 80.1067 11.646V16H78.0487V11.184C78.0487 10.9133 78.0393 10.5867 78.0207 10.204C78.002 9.82133 77.96 9.43867 77.8947 9.056H79.7287L79.8687 10.26H79.9247C80.2233 9.868 80.5453 9.54133 80.8907 9.28C81.236 9.01867 81.6513 8.888 82.1367 8.888C82.874 8.888 83.3967 9.14 83.7047 9.644C84.0127 10.1387 84.1667 10.82 84.1667 11.688V18.478H82.0807ZM80.6667 7.978L81.1427 4.898L83.1447 5.234L82.0387 8.23L80.6667 7.978ZM87.9847 18.24L90.7987 6.06H92.1427L89.3287 18.24H87.9847ZM95.8816 16V14.754L98.7096 11.394L95.9236 8.118V6.872H102.182V8.608H98.4996L100.768 11.338L98.4576 14.264H102.56V16H95.8816ZM106.536 16.168C106.014 16.168 105.566 16.098 105.192 15.958C104.828 15.8087 104.525 15.6033 104.282 15.342C104.049 15.0807 103.876 14.768 103.764 14.404C103.652 14.04 103.596 13.6387 103.596 13.2C103.596 12.8733 103.606 12.542 103.624 12.206C103.643 11.8607 103.652 11.52 103.652 11.184C103.652 10.9133 103.643 10.5867 103.624 10.204C103.606 9.82133 103.564 9.43867 103.498 9.056H105.486C105.533 9.29867 105.566 9.56467 105.584 9.854C105.603 10.134 105.612 10.4373 105.612 10.764C105.612 11.0627 105.598 11.4593 105.57 11.954C105.542 12.4393 105.528 12.9153 105.528 13.382C105.528 13.7553 105.622 14.0353 105.808 14.222C106.004 14.4087 106.247 14.502 106.536 14.502C106.91 14.502 107.194 14.3387 107.39 14.012C107.586 13.6853 107.684 13.1673 107.684 12.458C107.684 12.01 107.647 11.534 107.572 11.03C107.507 10.526 107.39 9.95667 107.222 9.322L109.21 8.888C109.369 9.448 109.495 10.022 109.588 10.61C109.691 11.1887 109.742 11.772 109.742 12.36C109.742 13.5453 109.467 14.4787 108.916 15.16C108.375 15.832 107.582 16.168 106.536 16.168ZM105.822 7.978L106.298 4.898L108.3 5.234L107.194 8.23L105.822 7.978ZM112.759 16C112.656 15.356 112.516 14.726 112.339 14.11C112.162 13.494 111.961 12.906 111.737 12.346C111.513 11.7767 111.27 11.24 111.009 10.736C110.748 10.2227 110.477 9.756 110.197 9.336L112.297 8.888C112.484 9.20533 112.666 9.57867 112.843 10.008C113.03 10.428 113.202 10.8667 113.361 11.324C113.52 11.772 113.66 12.2247 113.781 12.682C113.902 13.13 114 13.536 114.075 13.9H114.131C114.476 13.1067 114.733 12.304 114.901 11.492C115.069 10.6707 115.186 9.85867 115.251 9.056H117.295C117.192 9.672 117.071 10.26 116.931 10.82C116.791 11.38 116.618 11.9353 116.413 12.486C116.217 13.0367 115.979 13.6013 115.699 14.18C115.428 14.7493 115.102 15.356 114.719 16H112.759ZM121.142 16.168C120.694 16.168 120.274 16.098 119.882 15.958C119.49 15.8087 119.145 15.5987 118.846 15.328C118.557 15.048 118.324 14.712 118.146 14.32C117.978 13.928 117.894 13.48 117.894 12.976C117.894 12.612 117.95 12.2807 118.062 11.982C118.174 11.6833 118.328 11.4173 118.524 11.184C118.72 10.9413 118.944 10.7313 119.196 10.554C119.458 10.3673 119.728 10.2133 120.008 10.092C119.812 9.952 119.626 9.798 119.448 9.63C119.28 9.462 119.126 9.28467 118.986 9.098C118.856 8.902 118.748 8.692 118.664 8.468C118.59 8.244 118.552 7.99667 118.552 7.726C118.552 7.502 118.604 7.28733 118.706 7.082C118.809 6.86733 118.963 6.68533 119.168 6.536C119.383 6.37733 119.649 6.25133 119.966 6.158C120.284 6.06467 120.662 6.018 121.1 6.018C121.604 6.018 122.122 6.074 122.654 6.186C123.186 6.28867 123.695 6.41933 124.18 6.578L123.718 8.104C123.224 7.936 122.752 7.80067 122.304 7.698C121.856 7.59533 121.455 7.544 121.1 7.544C120.876 7.544 120.713 7.58133 120.61 7.656C120.508 7.72133 120.456 7.81 120.456 7.922C120.456 8.04333 120.508 8.16933 120.61 8.3C120.722 8.42133 120.867 8.552 121.044 8.692C121.231 8.832 121.441 8.98133 121.674 9.14C121.908 9.29867 122.155 9.47133 122.416 9.658C122.724 9.882 123.004 10.106 123.256 10.33C123.508 10.554 123.718 10.792 123.886 11.044C124.064 11.296 124.199 11.5713 124.292 11.87C124.386 12.1687 124.432 12.5047 124.432 12.878C124.432 13.3727 124.358 13.8207 124.208 14.222C124.059 14.6233 123.84 14.9687 123.55 15.258C123.27 15.5473 122.925 15.7713 122.514 15.93C122.113 16.0887 121.656 16.168 121.142 16.168ZM121.184 14.502C121.558 14.502 121.861 14.376 122.094 14.124C122.328 13.8627 122.444 13.4427 122.444 12.864C122.444 12.4627 122.342 12.1173 122.136 11.828C121.931 11.5387 121.674 11.2727 121.366 11.03C120.89 11.1607 120.517 11.38 120.246 11.688C119.976 11.996 119.84 12.416 119.84 12.948C119.84 13.452 119.971 13.8393 120.232 14.11C120.503 14.3713 120.82 14.502 121.184 14.502ZM128.742 16.168C128.294 16.168 127.87 16.1213 127.468 16.028C127.076 15.944 126.731 15.8133 126.432 15.636C126.143 15.4587 125.914 15.2347 125.746 14.964C125.578 14.6933 125.494 14.3807 125.494 14.026C125.494 13.55 125.611 13.186 125.844 12.934C126.087 12.6727 126.418 12.486 126.838 12.374V12.318C126.484 12.206 126.218 12.01 126.04 11.73C125.872 11.4407 125.788 11.156 125.788 10.876C125.788 10.5307 125.868 10.232 126.026 9.98C126.194 9.728 126.414 9.52267 126.684 9.364C126.964 9.20533 127.282 9.08867 127.636 9.014C128 8.93 128.378 8.888 128.77 8.888C129.19 8.888 129.606 8.95333 130.016 9.084C130.436 9.20533 130.819 9.378 131.164 9.602L130.408 10.918C129.942 10.61 129.433 10.456 128.882 10.456C128.556 10.456 128.294 10.5213 128.098 10.652C127.902 10.7733 127.804 10.9413 127.804 11.156C127.804 11.5667 128.131 11.772 128.784 11.772C128.934 11.772 129.092 11.7673 129.26 11.758C129.428 11.7487 129.592 11.7347 129.75 11.716V13.186C129.554 13.1673 129.354 13.1533 129.148 13.144C128.943 13.1347 128.747 13.13 128.56 13.13C128.196 13.13 127.93 13.186 127.762 13.298C127.594 13.4007 127.51 13.5733 127.51 13.816C127.51 14.0587 127.627 14.25 127.86 14.39C128.103 14.53 128.462 14.6 128.938 14.6C129.162 14.6 129.41 14.5627 129.68 14.488C129.96 14.4133 130.236 14.2733 130.506 14.068L131.304 15.37C130.856 15.6967 130.427 15.9113 130.016 16.014C129.615 16.1167 129.19 16.168 128.742 16.168ZM135.128 16.168C134.68 16.168 134.255 16.0933 133.854 15.944C133.453 15.7853 133.103 15.5567 132.804 15.258C132.505 14.95 132.267 14.5767 132.09 14.138C131.922 13.6993 131.838 13.1907 131.838 12.612C131.838 12.0147 131.931 11.492 132.118 11.044C132.314 10.596 132.566 10.2273 132.874 9.938C133.191 9.63933 133.551 9.42 133.952 9.28C134.363 9.13067 134.787 9.056 135.226 9.056H139.188V10.75C139.001 10.7313 138.824 10.7127 138.656 10.694C138.497 10.6753 138.339 10.6613 138.18 10.652C138.031 10.6333 137.877 10.6193 137.718 10.61C137.569 10.6007 137.405 10.596 137.228 10.596V10.652C137.573 10.848 137.839 11.1467 138.026 11.548C138.213 11.94 138.306 12.402 138.306 12.934C138.306 13.438 138.227 13.8907 138.068 14.292C137.909 14.684 137.69 15.02 137.41 15.3C137.13 15.58 136.794 15.7947 136.402 15.944C136.019 16.0933 135.595 16.168 135.128 16.168ZM135.156 14.502C135.529 14.502 135.819 14.348 136.024 14.04C136.239 13.732 136.346 13.2933 136.346 12.724C136.346 12.4533 136.318 12.1967 136.262 11.954C136.215 11.7113 136.141 11.5013 136.038 11.324C135.935 11.1373 135.809 10.9927 135.66 10.89C135.52 10.778 135.352 10.722 135.156 10.722C134.783 10.722 134.489 10.8713 134.274 11.17C134.059 11.4593 133.952 11.94 133.952 12.612C133.952 13.2187 134.059 13.6853 134.274 14.012C134.489 14.3387 134.783 14.502 135.156 14.502ZM144.301 18.478C144.32 17.9367 144.339 17.3627 144.357 16.756C144.376 16.1587 144.39 15.5707 144.399 14.992C144.418 14.4133 144.432 13.8627 144.441 13.34C144.451 12.8173 144.455 12.3553 144.455 11.954C144.455 11.45 144.395 11.1047 144.273 10.918C144.152 10.7313 143.937 10.638 143.629 10.638C143.387 10.638 143.163 10.722 142.957 10.89C142.761 11.058 142.551 11.31 142.327 11.646V16H140.269V11.184C140.269 10.9133 140.26 10.5867 140.241 10.204C140.223 9.82133 140.181 9.43867 140.115 9.056H141.949L142.089 10.26H142.145C142.444 9.868 142.766 9.54133 143.111 9.28C143.457 9.01867 143.872 8.888 144.357 8.888C145.095 8.888 145.617 9.14 145.925 9.644C146.233 10.1387 146.387 10.82 146.387 11.688V18.478H144.301Z" fill="white"/>
<path fill-rule="evenodd" clip-rule="evenodd" d="M7 7C7 4.2 9.2 2 12 2C14.8 2 17 4.2 17 7C17 9.8 14.8 12 12 12C9.2 12 7 9.8 7 7ZM21 19V21C21 21.6 20.6 22 20 22C19.4 22 19 21.6 19 21V19C19 17.3 17.7 16 16 16H8C6.3 16 5 17.3 5 19V21C5 21.6 4.6 22 4 22C3.4 22 3 21.6 3 21V19C3 16.2 5.2 14 8 14H16C18.8 14 21 16.2 21 19ZM12 10C10.3 10 9 8.7 9 7C9 5.3 10.3 4 12 4C13.7 4 15 5.3 15 7C15 8.7 13.7 10 12 10Z" fill="black"/>
<mask id="mask0" mask-type="alpha" maskUnits="userSpaceOnUse" x="3" y="2" width="18" height="20">
<path fill-rule="evenodd" clip-rule="evenodd" d="M7 7C7 4.2 9.2 2 12 2C14.8 2 17 4.2 17 7C17 9.8 14.8 12 12 12C9.2 12 7 9.8 7 7ZM21 19V21C21 21.6 20.6 22 20 22C19.4 22 19 21.6 19 21V19C19 17.3 17.7 16 16 16H8C6.3 16 5 17.3 5 19V21C5 21.6 4.6 22 4 22C3.4 22 3 21.6 3 21V19C3 16.2 5.2 14 8 14H16C18.8 14 21 16.2 21 19ZM12 10C10.3 10 9 8.7 9 7C9 5.3 10.3 4 12 4C13.7 4 15 5.3 15 7C15 8.7 13.7 10 12 10Z" fill="white"/>
</mask>
<g mask="url(#mask0)">
<rect width="24" height="24" fill="white"/>
</g>
</svg>
