<svg width="150" height="46" viewBox="0 0 150 46" fill="none" xmlns="http://www.w3.org/2000/svg">
<mask id="mask0" mask-type="alpha" maskUnits="userSpaceOnUse" x="0" y="0" width="150" height="46">
<rect width="150" height="46" fill="white"/>
</mask>
<g mask="url(#mask0)">
<path d="M35.078 28V18.872H42.204V28H40.146V20.608H37.136V28H35.078ZM44.3612 28V18.872H50.0732V20.608H46.4192V22.442H49.5272V24.164H46.4192V26.264H50.2132V28H44.3612ZM52.0311 28V18.872H55.1671C55.6711 18.872 56.1425 18.9233 56.5811 19.026C57.0198 19.1193 57.4025 19.2827 57.7291 19.516C58.0558 19.74 58.3125 20.0433 58.4991 20.426C58.6951 20.7993 58.7931 21.2613 58.7931 21.812C58.7931 22.344 58.6951 22.806 58.4991 23.198C58.3125 23.59 58.0558 23.912 57.7291 24.164C57.4025 24.416 57.0245 24.6027 56.5951 24.724C56.1658 24.8453 55.7085 24.906 55.2231 24.906H54.0891V28H52.0311ZM54.0891 23.268H55.0971C56.2171 23.268 56.7771 22.7827 56.7771 21.812C56.7771 21.336 56.6278 21 56.3291 20.804C56.0305 20.608 55.6011 20.51 55.0411 20.51H54.0891V23.268ZM60.371 28V18.872H62.429V28H60.371ZM64.0359 28V26.754L66.8639 23.394L64.0779 20.118V18.872H70.3359V20.608H66.6539L68.9219 23.338L66.6119 26.264H70.7139V28H64.0359ZM71.4461 28V26.754L74.2741 23.394L71.4881 20.118V18.872H77.7461V20.608H74.0641L76.3321 23.338L74.0221 26.264H78.1241V28H71.4461ZM82.7978 28.168C82.1818 28.168 81.6171 28.0607 81.1038 27.846C80.5998 27.622 80.1658 27.3047 79.8018 26.894C79.4378 26.4833 79.1531 25.984 78.9478 25.396C78.7518 24.808 78.6538 24.1407 78.6538 23.394C78.6538 22.6473 78.7518 21.9847 78.9478 21.406C79.1531 20.818 79.4378 20.328 79.8018 19.936C80.1658 19.5347 80.5998 19.2313 81.1038 19.026C81.6171 18.8113 82.1818 18.704 82.7978 18.704C83.4138 18.704 83.9738 18.8113 84.4778 19.026C84.9911 19.2313 85.4298 19.5347 85.7938 19.936C86.1578 20.3373 86.4378 20.832 86.6338 21.42C86.8391 21.9987 86.9418 22.6567 86.9418 23.394C86.9418 24.1407 86.8391 24.808 86.6338 25.396C86.4378 25.984 86.1578 26.4833 85.7938 26.894C85.4298 27.3047 84.9911 27.622 84.4778 27.846C83.9738 28.0607 83.4138 28.168 82.7978 28.168ZM82.7978 26.39C83.4231 26.39 83.9178 26.124 84.2818 25.592C84.6458 25.0507 84.8278 24.318 84.8278 23.394C84.8278 22.4793 84.6458 21.7653 84.2818 21.252C83.9178 20.7387 83.4231 20.482 82.7978 20.482C82.1724 20.482 81.6778 20.7387 81.3138 21.252C80.9498 21.7653 80.7678 22.4793 80.7678 23.394C80.7678 24.318 80.9498 25.0507 81.3138 25.592C81.6778 26.124 82.1724 26.39 82.7978 26.39ZM90.0396 28V20.608H87.5336V18.872H94.6176V20.608H92.1116V28H90.0396ZM96.0409 28V18.872H101.753V20.608H98.0989V22.442H101.207V24.164H98.0989V26.264H101.893V28H96.0409ZM103.711 28V18.872H106.847C107.351 18.872 107.822 18.9233 108.261 19.026C108.699 19.1193 109.082 19.2827 109.409 19.516C109.735 19.74 109.992 20.0433 110.179 20.426C110.375 20.7993 110.473 21.2613 110.473 21.812C110.473 22.344 110.375 22.806 110.179 23.198C109.992 23.59 109.735 23.912 109.409 24.164C109.082 24.416 108.704 24.6027 108.275 24.724C107.845 24.8453 107.388 24.906 106.903 24.906H105.769V28H103.711ZM105.769 23.268H106.777C107.897 23.268 108.457 22.7827 108.457 21.812C108.457 21.336 108.307 21 108.009 20.804C107.71 20.608 107.281 20.51 106.721 20.51H105.769V23.268ZM113.495 23.38L113.271 24.22H115.217L115.007 23.38C114.877 22.9227 114.751 22.4373 114.629 21.924C114.508 21.4107 114.387 20.916 114.265 20.44H114.209C114.097 20.9253 113.981 21.4247 113.859 21.938C113.747 22.442 113.626 22.9227 113.495 23.38ZM110.191 28L113.047 18.872H115.525L118.381 28H116.197L115.637 25.83H112.851L112.291 28H110.191Z" fill="white"/>
<rect x="8.5" y="22.5" width="17" height="1" rx="0.5" fill="#D8D8D8" stroke="#979797"/>
<mask id="mask1" mask-type="alpha" maskUnits="userSpaceOnUse" x="8" y="22" width="18" height="2">
<rect x="8.5" y="22.5" width="17" height="1" rx="0.5" fill="white" stroke="white"/>
</mask>
<g mask="url(#mask1)">
<path fill-rule="evenodd" clip-rule="evenodd" d="M5 11H29V35H5V11Z" fill="#BF0A30"/>
</g>
</g>
</svg>
