<svg width="320" height="40" viewBox="0 0 320 40" fill="none" xmlns="http://www.w3.org/2000/svg">
<circle cx="20" cy="20" r="20" fill="white"/>
<path fill-rule="evenodd" clip-rule="evenodd" d="M21.7416 30V20.877H24.8038L25.2623 17.3216H21.7416V15.0518C21.7416 14.0224 22.0275 13.3209 23.5036 13.3209L25.3862 13.3201V10.1401C25.0606 10.0968 23.9431 10 22.6428 10C19.9284 10 18.07 11.6569 18.07 14.6997V17.3216H15V20.877H18.07V30H21.7416Z" fill="white"/>
<mask id="mask0" mask-type="alpha" maskUnits="userSpaceOnUse" x="15" y="10" width="11" height="20">
<path fill-rule="evenodd" clip-rule="evenodd" d="M21.7416 30V20.877H24.8038L25.2623 17.3216H21.7416V15.0518C21.7416 14.0224 22.0275 13.3209 23.5036 13.3209L25.3862 13.3201V10.1401C25.0606 10.0968 23.9431 10 22.6428 10C19.9284 10 18.07 11.6569 18.07 14.6997V17.3216H15V20.877H18.07V30H21.7416Z" fill="white"/>
</mask>
<g mask="url(#mask0)">
<path fill-rule="evenodd" clip-rule="evenodd" d="M0 0H40V40H0V0Z" fill="#002868"/>
</g>
<circle cx="90" cy="20" r="20" fill="white"/>
<path fill-rule="evenodd" clip-rule="evenodd" d="M100 13.973C99.2651 14.3077 98.4739 14.534 97.644 14.6351C98.4915 14.1151 99.1419 13.2905 99.4483 12.3082C98.6547 12.7897 97.7778 13.14 96.841 13.3278C96.0944 12.5104 95.0273 12 93.8463 12C91.5819 12 89.7447 13.884 89.7447 16.2073C89.7447 16.5371 89.7799 16.8573 89.8503 17.1655C86.4401 16.9898 83.4173 15.3165 81.3923 12.768C81.0389 13.3916 80.837 14.1151 80.837 14.8855C80.837 16.3445 81.5613 17.6326 82.6624 18.3874C81.991 18.3669 81.357 18.1755 80.803 17.8625V17.9143C80.803 19.9535 82.2175 21.6545 84.0958 22.0397C83.7518 22.1384 83.3891 22.1878 83.0146 22.1878C82.7505 22.1878 82.4922 22.1625 82.2422 22.1132C82.7646 23.784 84.2789 25.0011 86.075 25.0336C84.671 26.1628 82.9007 26.8357 80.979 26.8357C80.648 26.8357 80.3205 26.8164 80 26.7779C81.816 27.9697 83.9737 28.6667 86.2898 28.6667C93.8381 28.6667 97.9644 22.2564 97.9644 16.696C97.9644 16.5131 97.9609 16.3301 97.9539 16.1507C98.7556 15.5572 99.4518 14.8169 100 13.973Z" fill="white"/>
<mask id="mask1" mask-type="alpha" maskUnits="userSpaceOnUse" x="80" y="12" width="20" height="17">
<path fill-rule="evenodd" clip-rule="evenodd" d="M100 13.973C99.2651 14.3077 98.4739 14.534 97.644 14.6351C98.4915 14.1151 99.1419 13.2905 99.4483 12.3082C98.6547 12.7897 97.7778 13.14 96.841 13.3278C96.0944 12.5104 95.0273 12 93.8463 12C91.5819 12 89.7447 13.884 89.7447 16.2073C89.7447 16.5371 89.7799 16.8573 89.8503 17.1655C86.4401 16.9898 83.4173 15.3165 81.3923 12.768C81.0389 13.3916 80.837 14.1151 80.837 14.8855C80.837 16.3445 81.5613 17.6326 82.6624 18.3874C81.991 18.3669 81.357 18.1755 80.803 17.8625V17.9143C80.803 19.9535 82.2175 21.6545 84.0958 22.0397C83.7518 22.1384 83.3891 22.1878 83.0146 22.1878C82.7505 22.1878 82.4922 22.1625 82.2422 22.1132C82.7646 23.784 84.2789 25.0011 86.075 25.0336C84.671 26.1628 82.9007 26.8357 80.979 26.8357C80.648 26.8357 80.3205 26.8164 80 26.7779C81.816 27.9697 83.9737 28.6667 86.2898 28.6667C93.8381 28.6667 97.9644 22.2564 97.9644 16.696C97.9644 16.5131 97.9609 16.3301 97.9539 16.1507C98.7556 15.5572 99.4518 14.8169 100 13.973Z" fill="white"/>
</mask>
<g mask="url(#mask1)">
<path fill-rule="evenodd" clip-rule="evenodd" d="M70 0H110V40H70V0Z" fill="#002868"/>
</g>
<circle cx="160" cy="20" r="20" fill="white"/>
<path fill-rule="evenodd" clip-rule="evenodd" d="M153.163 10C151.967 10 151 10.9714 151 12.1662C151 13.3624 151.967 14.3333 153.163 14.3333C154.355 14.3333 155.325 13.3624 155.325 12.1662C155.325 10.9714 154.355 10 153.163 10ZM151.296 27.9998H155.028V15.9768H151.296V27.9998ZM160.998 17.6197C161.496 16.6745 162.713 15.6775 164.528 15.6775C168.302 15.6775 169 18.167 169 21.4053V28H165.274V22.1532C165.274 20.7587 165.246 18.9652 163.334 18.9652C161.394 18.9652 161.097 20.4839 161.097 22.0529V28H157.368V15.977H160.947V17.6197H160.998Z" fill="#1A1919"/>
<mask id="mask2" mask-type="alpha" maskUnits="userSpaceOnUse" x="151" y="10" width="18" height="18">
<path fill-rule="evenodd" clip-rule="evenodd" d="M153.163 10C151.967 10 151 10.9714 151 12.1662C151 13.3624 151.967 14.3333 153.163 14.3333C154.355 14.3333 155.325 13.3624 155.325 12.1662C155.325 10.9714 154.355 10 153.163 10ZM151.296 27.9998H155.028V15.9768H151.296V27.9998ZM160.998 17.6197C161.496 16.6745 162.713 15.6775 164.528 15.6775C168.302 15.6775 169 18.167 169 21.4053V28H165.274V22.1532C165.274 20.7587 165.246 18.9652 163.334 18.9652C161.394 18.9652 161.097 20.4839 161.097 22.0529V28H157.368V15.977H160.947V17.6197H160.998Z" fill="white"/>
</mask>
<g mask="url(#mask2)">
<path fill-rule="evenodd" clip-rule="evenodd" d="M140 0H180V40H140V0Z" fill="#002868"/>
</g>
<circle cx="230" cy="20" r="20" fill="white"/>
<path fill-rule="evenodd" clip-rule="evenodd" d="M236 10H224C221.791 10 220 11.7909 220 14V26C220 28.2091 221.791 30 224 30H236C238.209 30 240 28.2091 240 26V14C240 11.7909 238.209 10 236 10ZM221.6 14C221.6 12.6745 222.675 11.6 224 11.6H236C237.325 11.6 238.4 12.6745 238.4 14V26C238.4 27.3255 237.325 28.4 236 28.4H224C222.675 28.4 221.6 27.3255 221.6 26V14ZM230 26C226.686 26 224 23.3137 224 20C224 16.6863 226.686 14 230 14C233.314 14 236 16.6863 236 20C236 23.3137 233.314 26 230 26ZM230 24.4C232.43 24.4 234.4 22.4301 234.4 20C234.4 17.5699 232.43 15.6 230 15.6C227.57 15.6 225.6 17.5699 225.6 20C225.6 22.4301 227.57 24.4 230 24.4ZM236 15.2C236.663 15.2 237.2 14.6627 237.2 14C237.2 13.3373 236.663 12.8 236 12.8C235.337 12.8 234.8 13.3373 234.8 14C234.8 14.6627 235.337 15.2 236 15.2Z" fill="white"/>
<mask id="mask3" mask-type="alpha" maskUnits="userSpaceOnUse" x="220" y="10" width="20" height="20">
<path fill-rule="evenodd" clip-rule="evenodd" d="M236 10H224C221.791 10 220 11.7909 220 14V26C220 28.2091 221.791 30 224 30H236C238.209 30 240 28.2091 240 26V14C240 11.7909 238.209 10 236 10ZM221.6 14C221.6 12.6745 222.675 11.6 224 11.6H236C237.325 11.6 238.4 12.6745 238.4 14V26C238.4 27.3255 237.325 28.4 236 28.4H224C222.675 28.4 221.6 27.3255 221.6 26V14ZM230 26C226.686 26 224 23.3137 224 20C224 16.6863 226.686 14 230 14C233.314 14 236 16.6863 236 20C236 23.3137 233.314 26 230 26ZM230 24.4C232.43 24.4 234.4 22.4301 234.4 20C234.4 17.5699 232.43 15.6 230 15.6C227.57 15.6 225.6 17.5699 225.6 20C225.6 22.4301 227.57 24.4 230 24.4ZM236 15.2C236.663 15.2 237.2 14.6627 237.2 14C237.2 13.3373 236.663 12.8 236 12.8C235.337 12.8 234.8 13.3373 234.8 14C234.8 14.6627 235.337 15.2 236 15.2Z" fill="white"/>
</mask>
<g mask="url(#mask3)">
<path fill-rule="evenodd" clip-rule="evenodd" d="M210 0H250V40H210V0Z" fill="#002868"/>
</g>
<circle cx="300" cy="20" r="20" fill="white"/>
<path fill-rule="evenodd" clip-rule="evenodd" d="M297.522 23.635L297.521 16.8439L304.006 20.2511L297.522 23.635ZM311.76 15.6671C311.76 15.6671 311.525 14.0016 310.806 13.2682C309.893 12.3051 308.87 12.3006 308.402 12.2447C305.043 12 300.005 12 300.005 12H299.995C299.995 12 294.957 12 291.599 12.2447C291.129 12.3006 290.107 12.3051 289.193 13.2682C288.474 14.0016 288.24 15.6671 288.24 15.6671C288.24 15.6671 288 17.6234 288 19.5789V21.4128C288 23.3691 288.24 25.3246 288.24 25.3246C288.24 25.3246 288.474 26.9901 289.193 27.7235C290.107 28.6865 291.306 28.6563 291.84 28.7568C293.76 28.9426 300 29 300 29C300 29 305.043 28.9924 308.402 28.7477C308.87 28.6911 309.893 28.6865 310.806 27.7235C311.525 26.9901 311.76 25.3246 311.76 25.3246C311.76 25.3246 312 23.3691 312 21.4128V19.5789C312 17.6234 311.76 15.6671 311.76 15.6671Z" fill="white"/>
<mask id="mask4" mask-type="alpha" maskUnits="userSpaceOnUse" x="288" y="12" width="24" height="17">
<path fill-rule="evenodd" clip-rule="evenodd" d="M297.522 23.635L297.521 16.8439L304.006 20.2511L297.522 23.635ZM311.76 15.6671C311.76 15.6671 311.525 14.0016 310.806 13.2682C309.893 12.3051 308.87 12.3006 308.402 12.2447C305.043 12 300.005 12 300.005 12H299.995C299.995 12 294.957 12 291.599 12.2447C291.129 12.3006 290.107 12.3051 289.193 13.2682C288.474 14.0016 288.24 15.6671 288.24 15.6671C288.24 15.6671 288 17.6234 288 19.5789V21.4128C288 23.3691 288.24 25.3246 288.24 25.3246C288.24 25.3246 288.474 26.9901 289.193 27.7235C290.107 28.6865 291.306 28.6563 291.84 28.7568C293.76 28.9426 300 29 300 29C300 29 305.043 28.9924 308.402 28.7477C308.87 28.6911 309.893 28.6865 310.806 27.7235C311.525 26.9901 311.76 25.3246 311.76 25.3246C311.76 25.3246 312 23.3691 312 21.4128V19.5789C312 17.6234 311.76 15.6671 311.76 15.6671Z" fill="white"/>
</mask>
<g mask="url(#mask4)">
<path fill-rule="evenodd" clip-rule="evenodd" d="M280 0H320V40H280V0Z" fill="#002868"/>
</g>
</svg>
