<svg width="85" height="44" viewBox="0 0 85 44" fill="none" xmlns="http://www.w3.org/2000/svg">
<path d="M31.786 36V18.658H29.888L25.546 23.13L26.846 24.456L29.628 21.518V36H31.786ZM40.7265 36.312C44.5485 36.312 46.8625 34.206 46.8625 31.32C46.8625 28.538 44.4445 27.186 42.8585 27.056C44.4965 26.77 46.6025 25.522 46.6025 23.026C46.6025 20.088 44.0545 18.398 40.7265 18.398C38.0485 18.398 36.0465 19.568 34.7985 21.076L35.9945 22.428C37.2685 21.05 38.6725 20.322 40.5705 20.322C42.6765 20.322 44.4445 21.362 44.4445 23.286C44.4445 25.288 42.5985 26.146 40.4145 26.146C39.7125 26.146 38.9065 26.146 38.6205 26.12V28.096C38.8805 28.07 39.6865 28.07 40.4145 28.07C42.9625 28.07 44.7305 28.98 44.7305 31.138C44.7305 33.14 43.1965 34.388 40.6745 34.388C38.6205 34.388 36.8525 33.452 35.8385 32.1L34.5645 33.452C35.6305 35.012 37.7885 36.312 40.7265 36.312ZM51.2732 26.12C52.0532 26.12 52.7032 25.47 52.7032 24.69C52.7032 23.91 52.0532 23.26 51.2732 23.26C50.4932 23.26 49.8432 23.91 49.8432 24.69C49.8432 25.47 50.4932 26.12 51.2732 26.12ZM51.2732 36.26C52.0532 36.26 52.7032 35.61 52.7032 34.83C52.7032 34.05 52.0532 33.4 51.2732 33.4C50.4932 33.4 49.8432 34.05 49.8432 34.83C49.8432 35.61 50.4932 36.26 51.2732 36.26ZM67.5874 36V34.076H59.0854C63.9214 30.254 67.5094 27.03 67.5094 23.494C67.5094 20.036 64.5714 18.398 61.6854 18.398C59.2414 18.398 56.9794 19.386 55.6534 21.128L56.9794 22.506C57.9934 21.206 59.6054 20.322 61.6854 20.322C63.4794 20.322 65.2994 21.284 65.2994 23.494C65.2994 26.484 61.9194 29.37 55.6794 34.284V36H67.5874ZM77.1265 36.312C80.5325 36.312 83.3405 34.544 83.3405 31.606C83.3405 29.292 81.3645 27.706 79.2065 27.056C81.2085 26.484 83.0805 25.184 83.0805 22.896C83.0805 19.776 79.9865 18.398 77.1265 18.398C74.2405 18.398 71.1985 19.776 71.1985 22.896C71.1985 25.184 73.0445 26.484 75.0465 27.056C72.8885 27.706 70.9125 29.292 70.9125 31.606C70.9125 34.57 73.6945 36.312 77.1265 36.312ZM77.1265 26.172C76.0865 25.99 73.3565 25.288 73.3565 23.182C73.3565 21.388 75.0205 20.322 77.1265 20.322C79.2065 20.322 80.8965 21.388 80.8965 23.182C80.8965 25.288 78.1925 25.99 77.1265 26.172ZM77.1265 34.388C74.9685 34.388 73.0705 33.244 73.0705 31.372C73.0705 29.11 76.0605 28.148 77.1265 28.018C78.1925 28.148 81.1565 29.11 81.1565 31.372C81.1565 33.244 79.2585 34.388 77.1265 34.388Z" fill="white"/>
<path d="M28.76 8.04L28.568 8.76H30.236L30.056 8.04C29.944 7.648 29.836 7.232 29.732 6.792C29.628 6.352 29.524 5.928 29.42 5.52H29.372C29.276 5.936 29.176 6.364 29.072 6.804C28.976 7.236 28.872 7.648 28.76 8.04ZM25.928 12L28.376 4.176H30.5L32.948 12H31.076L30.596 10.14H28.208L27.728 12H25.928ZM35.8029 12V4.176H38.4909C38.9229 4.176 39.3269 4.22 39.7029 4.308C40.0789 4.388 40.4069 4.528 40.6869 4.728C40.9669 4.92 41.1869 5.18 41.3469 5.508C41.5149 5.828 41.5989 6.224 41.5989 6.696C41.5989 7.152 41.5149 7.548 41.3469 7.884C41.1869 8.22 40.9669 8.496 40.6869 8.712C40.4069 8.928 40.0829 9.088 39.7149 9.192C39.3469 9.296 38.9549 9.348 38.5389 9.348H37.5669V12H35.8029ZM37.5669 7.944H38.4309C39.3909 7.944 39.8709 7.528 39.8709 6.696C39.8709 6.288 39.7429 6 39.4869 5.832C39.2309 5.664 38.8629 5.58 38.3829 5.58H37.5669V7.944ZM44.9513 12V4.176H46.7153V7.38H46.7633L49.0913 4.176H51.0353L48.6713 7.296L51.4673 12H49.5353L47.6273 8.7L46.7153 9.9V12H44.9513ZM56.0413 8.04L55.8493 8.76H57.5173L57.3373 8.04C57.2253 7.648 57.1173 7.232 57.0133 6.792C56.9093 6.352 56.8053 5.928 56.7013 5.52H56.6533C56.5573 5.936 56.4573 6.364 56.3533 6.804C56.2573 7.236 56.1533 7.648 56.0413 8.04ZM53.2092 12L55.6573 4.176H57.7813L60.2293 12H58.3573L57.8773 10.14H55.4893L55.0093 12H53.2092ZM62.5682 12V10.932L64.9442 4.176H67.0562L69.4322 10.932V12H62.5682ZM64.4642 10.512H67.4882L66.6602 7.872L65.9882 5.532H65.9402L65.2802 7.872L64.4642 10.512ZM72.7599 12V4.176H74.5239V12H72.7599ZM80.2053 8.04L80.0133 8.76H81.6813L81.5013 8.04C81.3893 7.648 81.2813 7.232 81.1773 6.792C81.0733 6.352 80.9693 5.928 80.8653 5.52H80.8173C80.7213 5.936 80.6213 6.364 80.5173 6.804C80.4213 7.236 80.3173 7.648 80.2053 8.04ZM77.3733 12L79.8213 4.176H81.9453L84.3933 12H82.5213L82.0413 10.14H79.6533L79.1733 12H77.3733Z" fill="white"/>
<path fill-rule="evenodd" clip-rule="evenodd" d="M10 17.8333C4.91668 17.8333 0.833344 21.9167 0.833344 27C0.833344 32.0833 4.91668 36.1667 10 36.1667C15.0833 36.1667 19.1667 32.0833 19.1667 27C19.1667 21.9167 15.0833 17.8333 10 17.8333ZM10 34.5C5.83334 34.5 2.50001 31.1667 2.50001 27C2.50001 22.8333 5.83334 19.5 10 19.5C14.1667 19.5 17.5 22.8333 17.5 27C17.5 31.1667 14.1667 34.5 10 34.5ZM13.0833 30.0833C13.4167 29.75 13.4167 29.25 13.0833 28.9167L10.8333 26.6667V22C10.8333 21.5 10.5 21.1667 10 21.1667C9.50001 21.1667 9.16668 21.5 9.16668 22V27C9.16668 27.25 9.25001 27.4167 9.41668 27.5833L11.9167 30.0833C12.0833 30.25 12.25 30.3333 12.5 30.3333C12.75 30.3333 12.9167 30.25 13.0833 30.0833Z" fill="black"/>
<mask id="mask0" mask-type="alpha" maskUnits="userSpaceOnUse" x="0" y="17" width="20" height="20">
<path fill-rule="evenodd" clip-rule="evenodd" d="M10 17.8333C4.91668 17.8333 0.833344 21.9167 0.833344 27C0.833344 32.0833 4.91668 36.1667 10 36.1667C15.0833 36.1667 19.1667 32.0833 19.1667 27C19.1667 21.9167 15.0833 17.8333 10 17.8333ZM10 34.5C5.83334 34.5 2.50001 31.1667 2.50001 27C2.50001 22.8333 5.83334 19.5 10 19.5C14.1667 19.5 17.5 22.8333 17.5 27C17.5 31.1667 14.1667 34.5 10 34.5ZM13.0833 30.0833C13.4167 29.75 13.4167 29.25 13.0833 28.9167L10.8333 26.6667V22C10.8333 21.5 10.5 21.1667 10 21.1667C9.50001 21.1667 9.16668 21.5 9.16668 22V27C9.16668 27.25 9.25001 27.4167 9.41668 27.5833L11.9167 30.0833C12.0833 30.25 12.25 30.3333 12.5 30.3333C12.75 30.3333 12.9167 30.25 13.0833 30.0833Z" fill="white"/>
</mask>
<g mask="url(#mask0)">
<rect y="17" width="20" height="20" fill="white"/>
</g>
</svg>
