<svg width="99" height="44" viewBox="0 0 99 44" fill="none" xmlns="http://www.w3.org/2000/svg">
<path d="M31.786 36V18.658H29.888L25.546 23.13L26.846 24.456L29.628 21.518V36H31.786ZM47.1225 36V34.076H38.6205C43.4565 30.254 47.0445 27.03 47.0445 23.494C47.0445 20.036 44.1065 18.398 41.2205 18.398C38.7765 18.398 36.5145 19.386 35.1885 21.128L36.5145 22.506C37.5285 21.206 39.1405 20.322 41.2205 20.322C43.0145 20.322 44.8345 21.284 44.8345 23.494C44.8345 26.484 41.4545 29.37 35.2145 34.284V36H47.1225Z" fill="white"/>
<path d="M55.942 21.57C55.942 19.828 54.512 18.398 52.744 18.398C51.002 18.398 49.598 19.828 49.598 21.57C49.598 23.338 51.002 24.742 52.744 24.742C54.512 24.742 55.942 23.338 55.942 21.57ZM54.694 21.57C54.694 22.636 53.81 23.494 52.744 23.494C51.704 23.494 50.872 22.636 50.872 21.57C50.872 20.53 51.704 19.646 52.744 19.646C53.81 19.646 54.694 20.53 54.694 21.57ZM66.785 36.312C69.853 36.312 71.933 34.856 73.389 32.88L71.543 31.866C70.555 33.348 68.761 34.388 66.785 34.388C62.989 34.388 60.103 31.45 60.103 27.342C60.103 23.208 62.989 20.296 66.785 20.296C68.761 20.296 70.555 21.362 71.543 22.818L73.363 21.804C71.985 19.854 69.853 18.372 66.785 18.372C61.793 18.372 57.867 22.012 57.867 27.342C57.867 32.672 61.793 36.312 66.785 36.312Z" fill="white"/>
<path opacity="0.4" d="M82.942 21.57C82.942 19.828 81.512 18.398 79.744 18.398C78.002 18.398 76.598 19.828 76.598 21.57C76.598 23.338 78.002 24.742 79.744 24.742C81.512 24.742 82.942 23.338 82.942 21.57ZM81.694 21.57C81.694 22.636 80.81 23.494 79.744 23.494C78.704 23.494 77.872 22.636 77.872 21.57C77.872 20.53 78.704 19.646 79.744 19.646C80.81 19.646 81.694 20.53 81.694 21.57ZM87.727 36V28.096H96.749V26.172H87.727V20.582H96.931V18.658H85.569V36H87.727Z" fill="white"/>
<path d="M26.924 12V4.176H28.688V7.38H28.736L31.064 4.176H33.008L30.644 7.296L33.44 12H31.508L29.6 8.7L28.688 9.9V12H26.924ZM38.0139 8.04L37.8219 8.76H39.4899L39.3099 8.04C39.1979 7.648 39.0899 7.232 38.9859 6.792C38.8819 6.352 38.7779 5.928 38.6739 5.52H38.6259C38.5299 5.936 38.4299 6.364 38.3259 6.804C38.2299 7.236 38.1259 7.648 38.0139 8.04ZM35.1819 12L37.6299 4.176H39.7539L42.2019 12H40.3299L39.8499 10.14H37.4619L36.9819 12H35.1819ZM45.7019 12V5.664H43.5539V4.176H49.6259V5.664H47.4779V12H45.7019ZM54.2014 8.04L54.0094 8.76H55.6774L55.4974 8.04C55.3854 7.648 55.2774 7.232 55.1734 6.792C55.0694 6.352 54.9654 5.928 54.8614 5.52H54.8134C54.7174 5.936 54.6174 6.364 54.5134 6.804C54.4174 7.236 54.3134 7.648 54.2014 8.04ZM51.3694 12L53.8174 4.176H55.9414L58.3894 12H56.5174L56.0374 10.14H53.6494L53.1694 12H51.3694ZM61.2443 12V4.176H63.0083V12H61.2443ZM66.8537 12V4.176H71.7857V5.664H68.6177V12H66.8537ZM75.1115 12V4.176H76.8755V12H75.1115ZM80.2049 12V10.932L82.5809 4.176H84.6929L87.0689 10.932V12H80.2049ZM82.1009 10.512H85.1249L84.2969 7.872L83.6249 5.532H83.5769L82.9169 7.872L82.1009 10.512ZM92.2327 8.04L92.0407 8.76H93.7087L93.5287 8.04C93.4167 7.648 93.3087 7.232 93.2047 6.792C93.1007 6.352 92.9967 5.928 92.8927 5.52H92.8447C92.7487 5.936 92.6487 6.364 92.5447 6.804C92.4487 7.236 92.3447 7.648 92.2327 8.04ZM89.4007 12L91.8487 4.176H93.9727L96.4207 12H94.5487L94.0687 10.14H91.6807L91.2007 12H89.4007Z" fill="white"/>
<path fill-rule="evenodd" clip-rule="evenodd" d="M15.8485 31.8939H16.0145C18.6702 31.308 20.413 28.6294 19.9151 26.0345C19.4171 23.6907 17.3423 22.0166 15.0186 22.0166H14.5206C13.2757 18.4172 9.3751 16.2408 5.64046 17.2453C3.73165 17.7476 2.07181 18.9194 1.0759 20.6773C-0.00299145 22.3514 -0.251967 24.4441 0.245985 26.3693C0.826929 28.3783 2.07181 30.0524 3.89763 31.0569C4.31259 31.308 4.81054 31.1406 5.05952 30.722C5.3085 30.3035 5.14251 29.8013 4.72755 29.6338C3.31669 28.7968 2.32078 27.5412 1.90582 25.9508C1.49086 24.3604 1.73984 22.8536 2.56976 21.4306C3.31669 20.0913 4.56157 19.1706 6.05542 18.752C9.12613 17.915 12.2798 19.8402 13.1097 22.9373C13.1927 23.3559 13.5247 23.607 13.9397 23.607H15.0186C16.5954 23.607 17.9233 24.6952 18.2552 26.2856C18.6702 28.0434 17.5083 29.885 15.6825 30.2198C15.1845 30.3035 14.9356 30.8057 15.0186 31.2243C15.1016 31.6428 15.4335 31.8939 15.8485 31.8939ZM9.12613 30.3035H12.5288C12.8608 30.3035 13.0268 30.5546 13.1927 30.8057C13.3587 31.0569 13.3587 31.3917 13.1927 31.6428L9.87306 36.6652C9.70708 36.8326 9.4581 37 9.20912 37C9.04314 37 8.87715 36.9163 8.71117 36.8326C8.29621 36.5815 8.21322 36.0792 8.46219 35.6607L10.952 31.9776H7.54928C7.21731 31.9776 6.96834 31.8102 6.88535 31.5591C6.71936 31.308 6.71936 30.9731 6.88535 30.722L10.205 25.6997C10.454 25.2811 10.952 25.1974 11.3669 25.4485C11.7819 25.6997 11.8649 26.2019 11.6159 26.6204L9.12613 30.3035Z" fill="black"/>
<mask id="mask0" mask-type="alpha" maskUnits="userSpaceOnUse" x="0" y="17" width="20" height="20">
<path fill-rule="evenodd" clip-rule="evenodd" d="M15.8485 31.8939H16.0145C18.6702 31.308 20.413 28.6294 19.9151 26.0345C19.4171 23.6907 17.3423 22.0166 15.0186 22.0166H14.5206C13.2757 18.4172 9.3751 16.2408 5.64046 17.2453C3.73165 17.7476 2.07181 18.9194 1.0759 20.6773C-0.00299145 22.3514 -0.251967 24.4441 0.245985 26.3693C0.826929 28.3783 2.07181 30.0524 3.89763 31.0569C4.31259 31.308 4.81054 31.1406 5.05952 30.722C5.3085 30.3035 5.14251 29.8013 4.72755 29.6338C3.31669 28.7968 2.32078 27.5412 1.90582 25.9508C1.49086 24.3604 1.73984 22.8536 2.56976 21.4306C3.31669 20.0913 4.56157 19.1706 6.05542 18.752C9.12613 17.915 12.2798 19.8402 13.1097 22.9373C13.1927 23.3559 13.5247 23.607 13.9397 23.607H15.0186C16.5954 23.607 17.9233 24.6952 18.2552 26.2856C18.6702 28.0434 17.5083 29.885 15.6825 30.2198C15.1845 30.3035 14.9356 30.8057 15.0186 31.2243C15.1016 31.6428 15.4335 31.8939 15.8485 31.8939ZM9.12613 30.3035H12.5288C12.8608 30.3035 13.0268 30.5546 13.1927 30.8057C13.3587 31.0569 13.3587 31.3917 13.1927 31.6428L9.87306 36.6652C9.70708 36.8326 9.4581 37 9.20912 37C9.04314 37 8.87715 36.9163 8.71117 36.8326C8.29621 36.5815 8.21322 36.0792 8.46219 35.6607L10.952 31.9776H7.54928C7.21731 31.9776 6.96834 31.8102 6.88535 31.5591C6.71936 31.308 6.71936 30.9731 6.88535 30.722L10.205 25.6997C10.454 25.2811 10.952 25.1974 11.3669 25.4485C11.7819 25.6997 11.8649 26.2019 11.6159 26.6204L9.12613 30.3035Z" fill="white"/>
</mask>
<g mask="url(#mask0)">
<rect y="17" width="20" height="20" fill="white"/>
</g>
</svg>
